<svg width="388" height="581" viewBox="0 0 388 581" fill="none" xmlns="http://www.w3.org/2000/svg">
<rect width="388" height="581" fill="#FBFBFB"/>
<rect y="417" width="388" height="164" fill="#2651FF"/>
<path d="M104.309 540L127.053 466.809H138.553L161.195 540H149.133L134.975 488.684L132.778 479.842H132.471L130.324 488.684L116.218 540H104.309ZM114.48 522.724L117.547 512.911H147.6L150.769 522.724H114.48ZM165.602 540L188.347 466.809H199.847L222.489 540H210.427L196.269 488.684L194.071 479.842H193.764L191.618 488.684L177.511 540H165.602ZM175.773 522.724L178.84 512.911H208.893L212.062 522.724H175.773ZM258.073 541.687C252.247 541.687 247.17 540.17 242.842 537.138C238.549 534.071 235.227 529.761 232.876 524.207C230.524 518.619 229.349 512.025 229.349 504.427V502.382C229.349 494.716 230.49 488.105 232.773 482.551C235.09 476.963 238.362 472.67 242.587 469.671C246.846 466.639 251.889 465.122 257.716 465.122C263.576 465.122 268.551 466.724 272.64 469.927C276.729 473.13 279.676 477.781 281.482 483.88L270.749 487.56C269.488 483.573 267.802 480.66 265.689 478.82C263.61 476.98 260.884 476.06 257.511 476.06C252.298 476.06 248.26 478.326 245.398 482.858C242.57 487.356 241.156 493.779 241.156 502.127V504.682C241.156 512.962 242.638 519.385 245.602 523.951C248.601 528.483 252.792 530.749 258.176 530.749C264.888 530.749 269.386 526.881 271.669 519.147L282.402 522.776C280.63 528.841 277.649 533.509 273.458 536.78C269.267 540.051 264.139 541.687 258.073 541.687Z" fill="white"/>
<path d="M109 195V220.5M143 161V254.5M177 135.5V288.5M211 178V237.5M245 152.5V263M279 195V220.5" stroke="#2651FF" stroke-width="21" stroke-linecap="round" stroke-linejoin="round"/>
</svg>
