<svg width="388" height="581" viewBox="0 0 388 581" fill="none" xmlns="http://www.w3.org/2000/svg">
<rect width="388" height="581" fill="#FBFBFB"/>
<rect width="388" height="581" fill="#FBFBFB"/>
<rect y="417" width="388" height="164" fill="#C800FF"/>
<path d="M104.309 540L127.053 466.809H138.553L161.195 540H149.133L134.975 488.684L132.778 479.842H132.471L130.324 488.684L116.218 540H104.309ZM114.48 522.724L117.547 512.911H147.6L150.769 522.724H114.48ZM170.969 540V466.809H194.276C199.148 466.809 203.373 467.763 206.951 469.671C210.529 471.579 213.289 474.271 215.231 477.747C217.207 481.222 218.196 485.294 218.196 489.962V491.291C218.196 495.993 217.207 500.082 215.231 503.558C213.289 506.999 210.529 509.691 206.951 511.633C203.373 513.541 199.148 514.496 194.276 514.496H177.562V503.864H194.02C197.973 503.864 201.039 502.774 203.22 500.593C205.435 498.413 206.542 495.397 206.542 491.547V489.707C206.542 485.822 205.435 482.807 203.22 480.66C201.039 478.479 197.973 477.389 194.02 477.389H182.469V540H170.969ZM270.033 540L242.944 503.251V502.893L269.113 466.809H282.709L254.342 505.04V500.44L283.833 540H270.033ZM231.7 540V466.809H243.302V540H231.7Z" fill="white"/>
<path d="M95 121.25C95 118.001 96.2906 114.885 98.5879 112.588C100.885 110.291 104.001 109 107.25 109H249.179C252.427 109.001 255.542 110.292 257.839 112.589L287.411 142.161C289.708 144.458 290.999 147.573 291 150.822V292.75C291 295.999 289.709 299.115 287.412 301.412C285.115 303.709 281.999 305 278.75 305H107.25C104.001 305 100.885 303.709 98.5879 301.412C96.2906 299.115 95 295.999 95 292.75V121.25Z" stroke="#C800FF" stroke-width="18" stroke-linejoin="round"/>
<path d="M144 109H242V158H144V109ZM229.75 231.5C229.75 241.247 225.878 250.594 218.986 257.486C212.094 264.378 202.747 268.25 193 268.25C183.253 268.25 173.906 264.378 167.014 257.486C160.122 250.594 156.25 241.247 156.25 231.5C156.25 221.753 160.122 212.406 167.014 205.514C173.906 198.622 183.253 194.75 193 194.75C202.747 194.75 212.094 198.622 218.986 205.514C225.878 212.406 229.75 221.753 229.75 231.5Z" stroke="#C800FF" stroke-width="18" stroke-linejoin="round"/>
</svg>
