<svg width="388" height="581" viewBox="0 0 388 581" fill="none" xmlns="http://www.w3.org/2000/svg">
<rect width="388" height="581" fill="#FBFBFB"/>
<rect width="388" height="581" fill="#FBFBFB"/>
<rect y="417" width="388" height="164" fill="#C800FF"/>
<path d="M43.5154 540L66.2598 466.809H77.7598L100.402 540H88.3398L74.1821 488.684L71.9843 479.842H71.6776L69.5309 488.684L55.4243 540H43.5154ZM53.6865 522.724L56.7532 512.911H86.8065L89.9754 522.724H53.6865ZM135.373 541.687C130.671 541.687 126.378 540.869 122.493 539.233C118.643 537.564 115.355 535.196 112.629 532.129C109.903 529.028 107.875 525.314 106.547 520.987L117.28 517.562C118.677 521.924 120.909 525.246 123.975 527.529C127.042 529.812 130.807 530.953 135.271 530.953C139.224 530.953 142.307 530.084 144.522 528.347C146.737 526.609 147.844 524.207 147.844 521.14V520.476C147.844 517.886 146.958 515.722 145.187 513.984C143.415 512.247 140.433 510.628 136.242 509.129L126.224 505.449C115.9 501.701 110.738 495.193 110.738 485.924V485.618C110.738 481.529 111.726 477.951 113.702 474.884C115.678 471.818 118.438 469.433 121.982 467.729C125.526 465.991 129.632 465.122 134.3 465.122C140.604 465.122 145.851 466.553 150.042 469.416C154.267 472.244 157.317 476.435 159.191 481.989L148.56 485.567C146.345 479.093 141.609 475.856 134.351 475.856C130.705 475.856 127.775 476.69 125.56 478.36C123.379 480.03 122.289 482.261 122.289 485.056V485.567C122.289 487.781 123.004 489.656 124.435 491.189C125.901 492.688 128.286 494.034 131.591 495.227L141.66 498.907C147.793 501.156 152.274 504.035 155.102 507.544C157.964 511.02 159.395 515.381 159.395 520.629V521.038C159.395 525.161 158.39 528.773 156.38 531.873C154.37 534.974 151.558 537.393 147.947 539.131C144.369 540.835 140.178 541.687 135.373 541.687ZM188.693 540V472.124H200.347V540H188.693ZM168.862 477.747V466.809H220.178V477.747H168.862ZM232.558 540V466.809H255.507C260.447 466.809 264.724 467.712 268.336 469.518C271.947 471.324 274.742 473.879 276.718 477.184C278.694 480.49 279.682 484.408 279.682 488.94V489.86C279.682 494.358 278.694 498.276 276.718 501.616C274.742 504.921 271.947 507.476 268.336 509.282C264.724 511.088 260.447 511.991 255.507 511.991H239.1V501.871H255.251C259.238 501.871 262.356 500.866 264.604 498.856C266.853 496.811 267.978 493.983 267.978 490.371V488.94C267.978 485.328 266.853 482.5 264.604 480.456C262.356 478.411 259.238 477.389 255.251 477.389H244.007V540H232.558ZM270.942 540L251.571 507.442H264.247L284.078 540H270.942ZM317.107 541.687C311.485 541.687 306.646 540.187 302.591 537.189C298.536 534.19 295.419 529.914 293.238 524.36C291.057 518.772 289.967 512.127 289.967 504.427V502.382C289.967 494.647 291.057 488.003 293.238 482.449C295.419 476.895 298.536 472.619 302.591 469.62C306.646 466.621 311.485 465.122 317.107 465.122C322.729 465.122 327.568 466.621 331.622 469.62C335.677 472.619 338.795 476.895 340.976 482.449C343.156 488.003 344.247 494.647 344.247 502.382V504.427C344.247 512.127 343.156 518.772 340.976 524.36C338.795 529.914 335.677 534.19 331.622 537.189C327.568 540.187 322.729 541.687 317.107 541.687ZM317.107 530.749C322.048 530.749 325.83 528.5 328.453 524.002C331.077 519.504 332.389 513.064 332.389 504.682V502.127C332.389 493.779 331.06 487.356 328.402 482.858C325.779 478.326 322.013 476.06 317.107 476.06C312.234 476.06 308.469 478.326 305.811 482.858C303.153 487.356 301.825 493.779 301.825 502.127V504.682C301.825 513.064 303.136 519.504 305.76 524.002C308.418 528.5 312.2 530.749 317.107 530.749Z" fill="white"/>
<path d="M162.64 291.385C152.729 282.299 149.836 263.214 153.961 249.376C161.111 258.099 171.033 260.86 181.307 262.422C197.147 264.82 212.723 263.929 227.452 256.658C229.135 255.822 230.697 254.711 232.534 253.6C233.92 257.615 234.283 261.674 233.799 265.81C232.622 275.875 227.639 283.652 219.686 289.548C216.507 291.913 213.152 294.014 209.874 296.236C199.798 303.078 197.07 311.086 200.854 322.746L201.228 324C196.382 321.888 192.282 318.37 189.458 313.902C186.506 309.303 184.933 303.955 184.926 298.491C184.893 295.763 184.893 293.024 184.53 290.351C183.639 283.806 180.57 280.891 174.817 280.715C172.055 280.559 169.331 281.414 167.155 283.121C164.978 284.827 163.498 287.269 162.992 289.988C162.896 290.413 162.775 290.875 162.629 291.374M106.1 247.077C106.1 247.077 135.426 232.744 164.84 232.744L187.016 163.884C187.841 160.54 190.272 158.274 193 158.274C195.75 158.274 198.17 160.54 198.995 163.884L221.171 232.744C256.008 232.744 279.911 247.077 279.911 247.077L229.993 110.622C228.563 106.596 226.143 104 222.898 104H163.113C159.857 104 157.547 106.596 156.018 110.622C155.908 110.886 106.1 247.077 106.1 247.077Z" fill="#C800FF"/>
</svg>
