<svg width="388" height="581" viewBox="0 0 388 581" fill="none" xmlns="http://www.w3.org/2000/svg">
<rect width="388" height="581" fill="#FBFBFB"/>
<rect y="417" width="388" height="164" fill="#FF2688"/>
<path d="M104.309 540L127.053 466.809H138.553L161.195 540H149.133L134.975 488.684L132.778 479.842H132.471L130.324 488.684L116.218 540H104.309ZM114.48 522.724L117.547 512.911H147.6L150.769 522.724H114.48ZM188.602 540L165.653 466.809H177.716L191.976 516.847L193.969 526.916H194.276L196.371 516.847L210.478 466.809H222.387L199.438 540H188.602ZM249.487 534.531V472.278H261.14V534.531H249.487ZM233.131 540V529.062H277.496V540H233.131ZM233.131 477.696V466.809H277.496V477.696H233.131Z" fill="white"/>
<path d="M289.25 116.75H98.7497C87.108 116.75 77.583 126.275 77.583 137.917V264.917C77.583 276.558 87.108 286.083 98.7497 286.083H151.666V296.667C151.666 302.487 156.429 307.25 162.25 307.25H225.75C231.571 307.25 236.333 302.487 236.333 296.667V286.083H289.25C300.891 286.083 310.311 276.558 310.311 264.917L310.416 137.917C310.416 132.303 308.186 126.919 304.217 122.95C300.247 118.98 294.863 116.75 289.25 116.75ZM278.666 264.917H109.333C103.512 264.917 98.7497 260.154 98.7497 254.333V148.5C98.7497 142.679 103.512 137.917 109.333 137.917H278.666C284.487 137.917 289.25 142.679 289.25 148.5V254.333C289.25 260.154 284.487 264.917 278.666 264.917ZM220.246 210.624L178.125 234.754C171.034 238.776 162.25 233.59 162.25 225.547V177.287C162.25 169.138 171.034 164.057 178.125 168.079L220.246 192.209C227.337 196.337 227.337 206.497 220.246 210.624Z" fill="#FF2688"/>
</svg>
