<svg width="388" height="581" viewBox="0 0 388 581" fill="none" xmlns="http://www.w3.org/2000/svg">
<rect width="388" height="581" fill="#FBFBFB"/>
<rect width="388" height="581" fill="#FBFBFB"/>
<rect y="417" width="388" height="164" fill="#C800FF"/>
<path d="M135.487 541.687C129.66 541.687 124.583 540.17 120.255 537.138C115.962 534.071 112.64 529.761 110.289 524.207C107.938 518.619 106.762 512.025 106.762 504.427V502.382C106.762 494.716 107.904 488.105 110.187 482.551C112.504 476.963 115.775 472.67 120 469.671C124.259 466.639 129.302 465.122 135.129 465.122C140.99 465.122 145.964 466.724 150.053 469.927C154.142 473.13 157.09 477.781 158.895 483.88L148.162 487.56C146.901 483.573 145.215 480.66 143.102 478.82C141.024 476.98 138.298 476.06 134.924 476.06C129.711 476.06 125.673 478.326 122.811 482.858C119.983 487.356 118.569 493.779 118.569 502.127V504.682C118.569 512.962 120.051 519.385 123.015 523.951C126.014 528.483 130.205 530.749 135.589 530.749C142.301 530.749 146.799 526.881 149.082 519.147L159.815 522.776C158.044 528.841 155.062 533.509 150.871 536.78C146.68 540.051 141.552 541.687 135.487 541.687ZM196.167 541.687C191.464 541.687 187.171 540.869 183.287 539.233C179.436 537.564 176.148 535.196 173.422 532.129C170.696 529.028 168.669 525.314 167.34 520.987L178.073 517.562C179.47 521.924 181.702 525.246 184.769 527.529C187.836 529.812 191.601 530.953 196.064 530.953C200.017 530.953 203.101 530.084 205.316 528.347C207.53 526.609 208.638 524.207 208.638 521.14V520.476C208.638 517.886 207.752 515.722 205.98 513.984C204.208 512.247 201.227 510.628 197.036 509.129L187.018 505.449C176.693 501.701 171.531 495.193 171.531 485.924V485.618C171.531 481.529 172.519 477.951 174.496 474.884C176.472 471.818 179.232 469.433 182.776 467.729C186.319 465.991 190.425 465.122 195.093 465.122C201.397 465.122 206.644 466.553 210.836 469.416C215.061 472.244 218.11 476.435 219.984 481.989L209.353 485.567C207.138 479.093 202.402 475.856 195.144 475.856C191.498 475.856 188.568 476.69 186.353 478.36C184.173 480.03 183.082 482.261 183.082 485.056V485.567C183.082 487.781 183.798 489.656 185.229 491.189C186.694 492.688 189.079 494.034 192.384 495.227L202.453 498.907C208.587 501.156 213.067 504.035 215.896 507.544C218.758 511.02 220.189 515.381 220.189 520.629V521.038C220.189 525.161 219.184 528.773 217.173 531.873C215.163 534.974 212.352 537.393 208.74 539.131C205.162 540.835 200.971 541.687 196.167 541.687ZM257.46 541.687C252.758 541.687 248.464 540.869 244.58 539.233C240.73 537.564 237.442 535.196 234.716 532.129C231.99 529.028 229.962 525.314 228.633 520.987L239.367 517.562C240.764 521.924 242.996 525.246 246.062 527.529C249.129 529.812 252.894 530.953 257.358 530.953C261.31 530.953 264.394 530.084 266.609 528.347C268.824 526.609 269.931 524.207 269.931 521.14V520.476C269.931 517.886 269.045 515.722 267.273 513.984C265.502 512.247 262.52 510.628 258.329 509.129L248.311 505.449C237.987 501.701 232.824 495.193 232.824 485.924V485.618C232.824 481.529 233.813 477.951 235.789 474.884C237.765 471.818 240.525 469.433 244.069 467.729C247.613 465.991 251.719 465.122 256.387 465.122C262.69 465.122 267.938 466.553 272.129 469.416C276.354 472.244 279.404 476.435 281.278 481.989L270.647 485.567C268.432 479.093 263.696 475.856 256.438 475.856C252.792 475.856 249.862 476.69 247.647 478.36C245.466 480.03 244.376 482.261 244.376 485.056V485.567C244.376 487.781 245.091 489.656 246.522 491.189C247.987 492.688 250.373 494.034 253.678 495.227L263.747 498.907C269.88 501.156 274.361 504.035 277.189 507.544C280.051 511.02 281.482 515.381 281.482 520.629V521.038C281.482 525.161 280.477 528.773 278.467 531.873C276.456 534.974 273.645 537.393 270.033 539.131C266.456 540.835 262.264 541.687 257.46 541.687Z" fill="white"/>
<path d="M154.333 120C149.206 120 144.288 122.037 140.663 125.663C137.037 129.288 135 134.206 135 139.333V178C135 183.128 132.963 188.045 129.337 191.671C125.712 195.296 120.794 197.333 115.667 197.333H106V216.667H115.667C120.794 216.667 125.712 218.704 129.337 222.329C132.963 225.955 135 230.872 135 236V274.667C135 279.794 137.037 284.712 140.663 288.337C144.288 291.963 149.206 294 154.333 294H173.667V274.667H154.333V226.333C154.333 221.206 152.296 216.288 148.671 212.663C145.045 209.037 140.128 207 135 207C140.128 207 145.045 204.963 148.671 201.337C152.296 197.712 154.333 192.794 154.333 187.667V139.333H173.667V120M231.667 120C236.794 120 241.712 122.037 245.337 125.663C248.963 129.288 251 134.206 251 139.333V178C251 183.128 253.037 188.045 256.663 191.671C260.288 195.296 265.206 197.333 270.333 197.333H280V216.667H270.333C265.206 216.667 260.288 218.704 256.663 222.329C253.037 225.955 251 230.872 251 236V274.667C251 279.794 248.963 284.712 245.337 288.337C241.712 291.963 236.794 294 231.667 294H212.333V274.667H231.667V226.333C231.667 221.206 233.704 216.288 237.329 212.663C240.955 209.037 245.872 207 251 207C245.872 207 240.955 204.963 237.329 201.337C233.704 197.712 231.667 192.794 231.667 187.667V139.333H212.333V120H231.667Z" fill="#C800FF"/>
</svg>
