<svg width="388" height="581" viewBox="0 0 388 581" fill="none" xmlns="http://www.w3.org/2000/svg">
<rect width="388" height="581" fill="#FBFBFB"/>
<rect width="388" height="581" fill="#FBFBFB"/>
<rect y="417" width="388" height="164" fill="#2651FF"/>
<path d="M139.953 539V465.809H159.938C166.139 465.809 171.438 467.24 175.833 470.102C180.263 472.93 183.67 477.002 186.055 482.318C188.441 487.633 189.633 493.988 189.633 501.382V503.427C189.633 510.787 188.441 517.141 186.055 522.491C183.67 527.807 180.263 531.896 175.833 534.758C171.438 537.586 166.139 539 159.938 539H139.953ZM151.453 528.164H159.682C165.679 528.164 170.194 526.103 173.227 521.98C176.293 517.857 177.827 511.758 177.827 503.682V501.127C177.827 493.051 176.293 486.952 173.227 482.829C170.194 478.706 165.679 476.644 159.682 476.644H151.453V528.164ZM202.576 539V465.809H226.7C233.106 465.809 238.149 467.41 241.829 470.613C245.509 473.816 247.349 478.093 247.349 483.442V484.72C247.349 488.536 246.429 491.807 244.589 494.533C242.749 497.259 240.108 499.27 236.667 500.564V500.973C240.926 501.927 244.248 503.955 246.633 507.056C249.053 510.122 250.262 513.887 250.262 518.351V519.731C250.262 523.616 249.342 527.006 247.502 529.902C245.696 532.799 243.141 535.047 239.836 536.649C236.564 538.216 232.697 539 228.233 539H202.576ZM213.922 529.187H226.904C230.653 529.187 233.549 528.233 235.593 526.324C237.638 524.416 238.66 521.69 238.66 518.147V517.022C238.66 513.479 237.604 510.753 235.491 508.844C233.413 506.902 230.397 505.931 226.444 505.931H210.753V496.527H225.064C228.506 496.527 231.147 495.658 232.987 493.92C234.827 492.182 235.747 489.712 235.747 486.509V485.589C235.747 482.352 234.827 479.881 232.987 478.178C231.181 476.474 228.54 475.622 225.064 475.622H213.922V529.187Z" fill="white"/>
<path d="M109 144C109 152.354 117.85 160.366 133.603 166.274C149.356 172.181 170.722 175.5 193 175.5C215.278 175.5 236.644 172.181 252.397 166.274C268.15 160.366 277 152.354 277 144C277 135.646 268.15 127.634 252.397 121.726C236.644 115.819 215.278 112.5 193 112.5C170.722 112.5 149.356 115.819 133.603 121.726C117.85 127.634 109 135.646 109 144Z" stroke="#2651FF" stroke-width="22" stroke-linecap="round" stroke-linejoin="round"/>
<path d="M109 144V207C109 215.354 117.85 223.366 133.603 229.274C149.356 235.181 170.722 238.5 193 238.5C215.278 238.5 236.644 235.181 252.397 229.274C268.15 223.366 277 215.354 277 207V144" stroke="#2651FF" stroke-width="22" stroke-linecap="round" stroke-linejoin="round"/>
<path d="M109 207V270C109 278.354 117.85 286.366 133.603 292.274C149.356 298.181 170.722 301.5 193 301.5C215.278 301.5 236.644 298.181 252.397 292.274C268.15 286.366 277 278.354 277 270V207" stroke="#2651FF" stroke-width="22" stroke-linecap="round" stroke-linejoin="round"/>
</svg>
