<svg width="388" height="581" viewBox="0 0 388 581" fill="none" xmlns="http://www.w3.org/2000/svg">
<rect width="388" height="581" fill="#FBFBFB"/>
<rect width="388" height="581" fill="#FBFBFB"/>
<rect y="417" width="388" height="164" fill="#242023"/>
<path d="M108.807 540V466.809H128.791C134.992 466.809 140.291 468.24 144.687 471.102C149.116 473.93 152.524 478.002 154.909 483.318C157.294 488.633 158.487 494.988 158.487 502.382V504.427C158.487 511.787 157.294 518.141 154.909 523.491C152.524 528.807 149.116 532.896 144.687 535.758C140.291 538.586 134.992 540 128.791 540H108.807ZM120.307 529.164H128.535C134.532 529.164 139.047 527.103 142.08 522.98C145.147 518.857 146.68 512.758 146.68 504.682V502.127C146.68 494.051 145.147 487.952 142.08 483.829C139.047 479.706 134.532 477.644 128.535 477.644H120.307V529.164ZM167.238 540V466.809H178.533L189.471 492.569L193.816 504.938H194.224L198.569 492.569L209.507 466.809H220.802V540H209.967V505.96L211.142 485.516H210.733L198.007 517H190.033L177.307 485.516H176.898L178.073 505.96V540H167.238ZM257.716 541.687C251.684 541.687 246.488 540.204 242.127 537.24C237.799 534.241 234.46 529.982 232.109 524.462C229.792 518.942 228.633 512.315 228.633 504.58V502.791C228.633 494.954 229.792 488.224 232.109 482.602C234.426 476.98 237.748 472.67 242.076 469.671C246.437 466.639 251.633 465.122 257.664 465.122C263.525 465.122 268.466 466.57 272.487 469.467C276.542 472.329 279.523 476.503 281.431 481.989L271.004 486.129C269.812 482.721 268.125 480.2 265.944 478.564C263.798 476.895 261.089 476.06 257.818 476.06C252.196 476.06 247.868 478.343 244.836 482.909C241.837 487.475 240.338 494.017 240.338 502.536V504.836C240.338 513.218 241.837 519.658 244.836 524.156C247.834 528.619 252.144 530.851 257.767 530.851C262.469 530.851 266.047 529.25 268.5 526.047C270.987 522.844 272.231 518.227 272.231 512.196V509.64H256.233V499.571H283.22V510.56C283.22 520.407 280.988 528.057 276.524 533.509C272.061 538.961 265.791 541.687 257.716 541.687Z" fill="white"/>
<path d="M95 121.25C95 118.001 96.2906 114.885 98.5879 112.588C100.885 110.291 104.001 109 107.25 109H249.179C252.427 109.001 255.542 110.292 257.839 112.589L287.411 142.161C289.708 144.458 290.999 147.573 291 150.822V292.75C291 295.999 289.709 299.115 287.412 301.412C285.115 303.709 281.999 305 278.75 305H107.25C104.001 305 100.885 303.709 98.5879 301.412C96.2906 299.115 95 295.999 95 292.75V121.25Z" stroke="#242023" stroke-width="18" stroke-linejoin="round"/>
<path d="M144 109H242V158H144V109ZM229.75 231.5C229.75 241.247 225.878 250.594 218.986 257.486C212.094 264.378 202.747 268.25 193 268.25C183.253 268.25 173.906 264.378 167.014 257.486C160.122 250.594 156.25 241.247 156.25 231.5C156.25 221.753 160.122 212.406 167.014 205.514C173.906 198.622 183.253 194.75 193 194.75C202.747 194.75 212.094 198.622 218.986 205.514C225.878 212.406 229.75 221.753 229.75 231.5Z" stroke="#242023" stroke-width="18" stroke-linejoin="round"/>
</svg>
