<svg width="388" height="581" viewBox="0 0 388 581" fill="none" xmlns="http://www.w3.org/2000/svg">
<rect width="388" height="581" fill="#FBFBFB"/>
<rect width="388" height="581" fill="#FBFBFB"/>
<rect y="417" width="388" height="164" fill="#00BFFF"/>
<path d="M110.8 540V466.809H153.529V477.593H122.351V529.216H154.347V540H110.8ZM117.7 507.902V497.169H149.44V507.902H117.7ZM209.813 540L189.931 505.551L188.5 504.887L166.267 466.809H179.198L197.956 499.06L199.387 499.776L222.744 540H209.813ZM165.296 540L188.96 499.98L190.238 499.009L209.149 466.809H221.773L199.233 504.836L197.956 505.756L177.92 540H165.296ZM233.387 540V466.809H276.116V477.593H244.938V529.216H276.933V540H233.387ZM240.287 507.902V497.169H272.027V507.902H240.287Z" fill="white"/>
<path d="M95 121.25C95 118.001 96.2906 114.885 98.5879 112.588C100.885 110.291 104.001 109 107.25 109H249.179C252.427 109.001 255.542 110.292 257.839 112.589L287.411 142.161C289.708 144.458 290.999 147.573 291 150.822V292.75C291 295.999 289.709 299.115 287.412 301.412C285.115 303.709 281.999 305 278.75 305H107.25C104.001 305 100.885 303.709 98.5879 301.412C96.2906 299.115 95 295.999 95 292.75V121.25Z" stroke="#00BFFF" stroke-width="18" stroke-linejoin="round"/>
<path d="M144 109H242V158H144V109ZM229.75 231.5C229.75 241.247 225.878 250.594 218.986 257.486C212.094 264.378 202.747 268.25 193 268.25C183.253 268.25 173.906 264.378 167.014 257.486C160.122 250.594 156.25 241.247 156.25 231.5C156.25 221.753 160.122 212.406 167.014 205.514C173.906 198.622 183.253 194.75 193 194.75C202.747 194.75 212.094 198.622 218.986 205.514C225.878 212.406 229.75 221.753 229.75 231.5Z" stroke="#00BFFF" stroke-width="18" stroke-linejoin="round"/>
</svg>
