<svg width="388" height="581" viewBox="0 0 388 581" fill="none" xmlns="http://www.w3.org/2000/svg">
<rect width="388" height="581" fill="#FBFBFB"/>
<rect y="417" width="388" height="164" fill="#C800FF"/>
<path d="M80.1532 540V466.809H123.7V477.644H91.7043V540H80.1532ZM87.0532 509.589V498.804H120.633V509.589H87.0532ZM142.213 540V466.809H153.815V529.062H187.907V540H142.213ZM196.249 540L218.993 466.809H230.493L253.136 540H241.073L226.916 488.684L224.718 479.842H224.411L222.264 488.684L208.158 540H196.249ZM206.42 522.724L209.487 512.911H239.54L242.709 522.724H206.42ZM288.72 541.687C282.893 541.687 277.816 540.17 273.489 537.138C269.196 534.071 265.873 529.761 263.522 524.207C261.171 518.619 259.996 512.025 259.996 504.427V502.382C259.996 494.716 261.137 488.105 263.42 482.551C265.737 476.963 269.008 472.67 273.233 469.671C277.493 466.639 282.536 465.122 288.362 465.122C294.223 465.122 299.198 466.724 303.287 469.927C307.376 473.13 310.323 477.781 312.129 483.88L301.396 487.56C300.135 483.573 298.448 480.66 296.336 478.82C294.257 476.98 291.531 476.06 288.158 476.06C282.945 476.06 278.907 478.326 276.045 482.858C273.216 487.356 271.802 493.779 271.802 502.127V504.682C271.802 512.962 273.285 519.385 276.249 523.951C279.247 528.483 283.439 530.749 288.822 530.749C295.535 530.749 300.033 526.881 302.316 519.147L313.049 522.776C311.277 528.841 308.296 533.509 304.105 536.78C299.913 540.051 294.785 541.687 288.72 541.687Z" fill="white"/>
<path d="M109 195V220.5M143 161V254.5M177 135.5V288.5M211 178V237.5M245 152.5V263M279 195V220.5" stroke="#C800FF" stroke-width="21" stroke-linecap="round" stroke-linejoin="round"/>
</svg>
