<svg width="388" height="581" viewBox="0 0 388 581" fill="none" xmlns="http://www.w3.org/2000/svg">
<rect width="388" height="581" fill="#FBFBFB"/>
<rect y="417" width="388" height="164" fill="#36C381"/>
<path d="M135.129 541.687C129.098 541.687 123.901 540.204 119.54 537.24C115.212 534.241 111.873 529.982 109.522 524.462C107.205 518.942 106.047 512.315 106.047 504.58V502.791C106.047 494.954 107.205 488.224 109.522 482.602C111.839 476.98 115.161 472.67 119.489 469.671C123.85 466.639 129.047 465.122 135.078 465.122C140.938 465.122 145.879 466.57 149.9 469.467C153.955 472.329 156.936 476.503 158.844 481.989L148.418 486.129C147.225 482.721 145.538 480.2 143.358 478.564C141.211 476.895 138.502 476.06 135.231 476.06C129.609 476.06 125.281 478.343 122.249 482.909C119.25 487.475 117.751 494.017 117.751 502.536V504.836C117.751 513.218 119.25 519.658 122.249 524.156C125.247 528.619 129.558 530.851 135.18 530.851C139.882 530.851 143.46 529.25 145.913 526.047C148.401 522.844 149.644 518.227 149.644 512.196V509.64H133.647V499.571H160.633V510.56C160.633 520.407 158.401 528.057 153.938 533.509C149.474 538.961 143.204 541.687 135.129 541.687ZM188.193 534.531V472.278H199.847V534.531H188.193ZM171.838 540V529.062H216.202V540H171.838ZM171.838 477.696V466.809H216.202V477.696H171.838ZM233.387 540V466.809H276.933V477.644H244.938V540H233.387ZM240.287 509.589V498.804H273.867V509.589H240.287Z" fill="white"/>
<path d="M225.75 169.667H225.856M98.75 148.5C98.75 140.079 102.095 132.004 108.049 126.049C114.004 120.095 122.079 116.75 130.5 116.75H257.5C265.921 116.75 273.996 120.095 279.951 126.049C285.905 132.004 289.25 140.079 289.25 148.5V275.5C289.25 283.921 285.905 291.996 279.951 297.951C273.996 303.905 265.921 307.25 257.5 307.25H130.5C122.079 307.25 114.004 303.905 108.049 297.951C102.095 291.996 98.75 283.921 98.75 275.5V148.5Z" stroke="#36C381" stroke-width="20" stroke-linecap="round" stroke-linejoin="round"/>
<path d="M98.75 254.333L151.667 201.417C161.488 191.966 173.595 191.966 183.417 201.417L236.333 254.333" stroke="#36C381" stroke-width="20" stroke-linecap="round" stroke-linejoin="round"/>
<path d="M215.166 233.167L225.749 222.583C235.571 213.132 247.678 213.132 257.499 222.583L289.249 254.333" stroke="#36C381" stroke-width="20" stroke-linecap="round" stroke-linejoin="round"/>
</svg>
