<svg width="388" height="581" viewBox="0 0 388 581" fill="none" xmlns="http://www.w3.org/2000/svg">
<rect width="388" height="581" fill="#FBFBFB"/>
<rect width="388" height="581" fill="#FBFBFB"/>
<rect y="417" width="388" height="164" fill="#00BFFF"/>
<path d="M166.275 541.687C160.244 541.687 155.048 540.204 150.687 537.24C146.359 534.241 143.02 529.982 140.669 524.462C138.352 518.942 137.193 512.315 137.193 504.58V502.791C137.193 494.954 138.352 488.224 140.669 482.602C142.986 476.98 146.308 472.67 150.635 469.671C154.997 466.639 160.193 465.122 166.224 465.122C172.085 465.122 177.026 466.57 181.047 469.467C185.101 472.329 188.083 476.503 189.991 481.989L179.564 486.129C178.372 482.721 176.685 480.2 174.504 478.564C172.358 476.895 169.649 476.06 166.378 476.06C160.755 476.06 156.428 478.343 153.395 482.909C150.397 487.475 148.898 494.017 148.898 502.536V504.836C148.898 513.218 150.397 519.658 153.395 524.156C156.394 528.619 160.704 530.851 166.327 530.851C171.029 530.851 174.607 529.25 177.06 526.047C179.547 522.844 180.791 518.227 180.791 512.196V509.64H164.793V499.571H191.78V510.56C191.78 520.407 189.548 528.057 185.084 533.509C180.621 538.961 174.351 541.687 166.275 541.687ZM225.167 541.687C219.544 541.687 214.706 540.187 210.651 537.189C206.596 534.19 203.479 529.914 201.298 524.36C199.117 518.772 198.027 512.127 198.027 504.427V502.382C198.027 494.647 199.117 488.003 201.298 482.449C203.479 476.895 206.596 472.619 210.651 469.62C214.706 466.621 219.544 465.122 225.167 465.122C230.789 465.122 235.627 466.621 239.682 469.62C243.737 472.619 246.855 476.895 249.036 482.449C251.216 488.003 252.307 494.647 252.307 502.382V504.427C252.307 512.127 251.216 518.772 249.036 524.36C246.855 529.914 243.737 534.19 239.682 537.189C235.627 540.187 230.789 541.687 225.167 541.687ZM225.167 530.749C230.107 530.749 233.89 528.5 236.513 524.002C239.137 519.504 240.449 513.064 240.449 504.682V502.127C240.449 493.779 239.12 487.356 236.462 482.858C233.839 478.326 230.073 476.06 225.167 476.06C220.294 476.06 216.529 478.326 213.871 482.858C211.213 487.356 209.884 493.779 209.884 502.127V504.682C209.884 513.064 211.196 519.504 213.82 524.002C216.478 528.5 220.26 530.749 225.167 530.749Z" fill="white"/>
<path d="M200.82 175.18C188.354 169.464 171.553 172.983 159.524 184.909C144.758 199.548 142.768 221.306 155.062 233.508C167.367 245.698 189.309 243.72 204.063 229.092C210.191 223.109 214.354 215.404 216 207H188.09M118.25 241.5H101M124 172.5H101M112.5 207H78M235.493 233.508C247.694 245.698 269.452 243.72 284.092 229.092C298.72 214.452 300.698 192.694 288.508 180.493C276.318 168.291 254.548 170.281 239.909 184.909C225.281 199.548 223.303 221.306 235.493 233.508Z" stroke="#00BFFF" stroke-width="19" stroke-linecap="round" stroke-linejoin="round"/>
</svg>
