<svg width="388" height="581" viewBox="0 0 388 581" fill="none" xmlns="http://www.w3.org/2000/svg">
<rect width="388" height="581" fill="#FBFBFB"/>
<rect y="417" width="388" height="164" fill="#2651FF"/>
<path d="M166.275 541.687C160.244 541.687 155.048 540.204 150.687 537.24C146.359 534.241 143.02 529.982 140.669 524.462C138.352 518.942 137.193 512.315 137.193 504.58V502.791C137.193 494.954 138.352 488.224 140.669 482.602C142.986 476.98 146.308 472.67 150.635 469.671C154.997 466.639 160.193 465.122 166.224 465.122C172.085 465.122 177.026 466.57 181.047 469.467C185.101 472.329 188.083 476.503 189.991 481.989L179.564 486.129C178.372 482.721 176.685 480.2 174.504 478.564C172.358 476.895 169.649 476.06 166.378 476.06C160.755 476.06 156.428 478.343 153.395 482.909C150.397 487.475 148.898 494.017 148.898 502.536V504.836C148.898 513.218 150.397 519.658 153.395 524.156C156.394 528.619 160.704 530.851 166.327 530.851C171.029 530.851 174.607 529.25 177.06 526.047C179.547 522.844 180.791 518.227 180.791 512.196V509.64H164.793V499.571H191.78V510.56C191.78 520.407 189.548 528.057 185.084 533.509C180.621 538.961 174.351 541.687 166.275 541.687ZM201.196 540V530.136L234.827 477.644H202.473V466.809H248.371V476.673L214.74 529.164H249.138V540H201.196Z" fill="white"/>
<path d="M128.501 307.357C125.177 305.438 122.418 302.677 120.501 299.352C118.585 296.026 117.578 292.255 117.584 288.417V135.583C117.584 129.793 119.884 124.239 123.979 120.145C128.073 116.05 133.627 113.75 139.417 113.75H215.834L270.417 168.333V288.417C270.417 294.207 268.117 299.761 264.023 303.855C259.928 307.95 254.375 310.25 248.584 310.25H237.667" stroke="#2651FF" stroke-width="21" stroke-linecap="round" stroke-linejoin="round"/>
<path d="M183.083 135.583H172.167M204.917 157.417H194M183.083 179.25H172.167M204.917 201.083H194M183.083 222.917H172.167M204.917 244.75H194M183.083 266.583C188.874 266.583 194.427 268.884 198.522 272.978C202.616 277.073 204.917 282.626 204.917 288.417V310.25C204.917 313.145 203.767 315.922 201.719 317.969C199.672 320.016 196.895 321.167 194 321.167H172.167C169.271 321.167 166.495 320.016 164.447 317.969C162.4 315.922 161.25 313.145 161.25 310.25V288.417C161.25 282.626 163.55 277.073 167.645 272.978C171.739 268.884 177.293 266.583 183.083 266.583Z" stroke="#2651FF" stroke-width="21" stroke-linecap="round" stroke-linejoin="round"/>
</svg>
