<svg width="388" height="581" viewBox="0 0 388 581" fill="none" xmlns="http://www.w3.org/2000/svg">
<rect width="388" height="581" fill="#FBFBFB"/>
<rect y="417" width="388" height="164" fill="#C3369B"/>
<path d="M113.682 540V466.809H125.233V540H113.682ZM78.9265 540V466.809H90.4776V540H78.9265ZM85.7754 507.953V497.22H118.64V507.953H85.7754ZM141.447 540V466.809H184.175V477.593H152.998V529.216H184.993V540H141.447ZM148.347 507.902V497.169H180.087V507.902H148.347ZM218.84 534.531V472.278H230.493V534.531H218.84ZM202.484 540V529.062H246.849V540H202.484ZM202.484 477.696V466.809H246.849V477.696H202.484ZM288.72 541.687C282.893 541.687 277.816 540.17 273.489 537.138C269.196 534.071 265.873 529.761 263.522 524.207C261.171 518.619 259.996 512.025 259.996 504.427V502.382C259.996 494.716 261.137 488.105 263.42 482.551C265.737 476.963 269.008 472.67 273.233 469.671C277.493 466.639 282.536 465.122 288.362 465.122C294.223 465.122 299.198 466.724 303.287 469.927C307.376 473.13 310.323 477.781 312.129 483.88L301.396 487.56C300.135 483.573 298.448 480.66 296.336 478.82C294.257 476.98 291.531 476.06 288.158 476.06C282.945 476.06 278.907 478.326 276.045 482.858C273.216 487.356 271.802 493.779 271.802 502.127V504.682C271.802 512.962 273.285 519.385 276.249 523.951C279.247 528.483 283.439 530.749 288.822 530.749C295.535 530.749 300.033 526.881 302.316 519.147L313.049 522.776C311.277 528.841 308.296 533.509 304.105 536.78C299.913 540.051 294.785 541.687 288.72 541.687Z" fill="white"/>
<path d="M225.75 169.667H225.856M98.75 148.5C98.75 140.079 102.095 132.004 108.049 126.049C114.004 120.095 122.079 116.75 130.5 116.75H257.5C265.921 116.75 273.996 120.095 279.951 126.049C285.905 132.004 289.25 140.079 289.25 148.5V275.5C289.25 283.921 285.905 291.996 279.951 297.951C273.996 303.905 265.921 307.25 257.5 307.25H130.5C122.079 307.25 114.004 303.905 108.049 297.951C102.095 291.996 98.75 283.921 98.75 275.5V148.5Z" stroke="#C3369B" stroke-width="20" stroke-linecap="round" stroke-linejoin="round"/>
<path d="M98.75 254.333L151.667 201.417C161.488 191.966 173.595 191.966 183.417 201.417L236.333 254.333" stroke="#C3369B" stroke-width="20" stroke-linecap="round" stroke-linejoin="round"/>
<path d="M215.166 233.167L225.749 222.583C235.571 213.132 247.678 213.132 257.499 222.583L289.249 254.333" stroke="#C3369B" stroke-width="20" stroke-linecap="round" stroke-linejoin="round"/>
</svg>
