<svg width="388" height="581" viewBox="0 0 388 581" fill="none" xmlns="http://www.w3.org/2000/svg">
<rect width="388" height="581" fill="#FBFBFB"/>
<rect width="388" height="581" fill="#FBFBFB"/>
<rect y="417" width="388" height="164" fill="#FF5722"/>
<path d="M113.682 540V466.809H125.233V540H113.682ZM78.9265 540V466.809H90.4776V540H78.9265ZM85.7754 507.953V497.22H118.64V507.953H85.7754ZM157.547 540V472.124H169.2V540H157.547ZM137.715 477.747V466.809H189.031V477.747H137.715ZM197.884 540V466.809H209.18L220.118 492.569L224.462 504.938H224.871L229.216 492.569L240.153 466.809H251.449V540H240.613V505.96L241.789 485.516H241.38L228.653 517H220.68L207.953 485.516H207.544L208.72 505.96V540H197.884ZM264.8 540V466.809H276.402V529.062H310.493V540H264.8Z" fill="white"/>
<path d="M220.083 254.917L268 207L220.083 159.083L234.666 144.5L297.166 207L234.666 269.5L220.083 254.917ZM165.916 254.917L118 207L165.916 159.083L151.333 144.5L88.833 207L151.333 269.5L165.916 254.917Z" fill="#FF5722"/>
</svg>
