<svg width="388" height="581" viewBox="0 0 388 581" fill="none" xmlns="http://www.w3.org/2000/svg">
<rect width="388" height="581" fill="#FBFBFB"/>
<rect width="388" height="581" fill="#FBFBFB"/>
<rect y="417" width="388" height="164" fill="#FF2688"/>
<path d="M102.182 541.687C96.2532 541.687 91.1762 540.051 86.951 536.78C82.7599 533.475 79.8806 528.909 78.3132 523.082L89.0465 519.453C91.0228 526.984 95.2821 530.749 101.824 530.749C105.334 530.749 107.992 529.573 109.798 527.222C111.604 524.837 112.507 521.344 112.507 516.744V466.809H124.109V517C124.109 522.077 123.223 526.473 121.451 530.187C119.679 533.867 117.158 536.712 113.887 538.722C110.615 540.699 106.714 541.687 102.182 541.687ZM134.955 540L157.7 466.809H169.2L191.842 540H179.78L165.622 488.684L163.424 479.842H163.118L160.971 488.684L146.864 540H134.955ZM145.127 522.724L148.193 512.911H178.247L181.415 522.724H145.127ZM219.249 540L196.3 466.809H208.362L222.622 516.847L224.616 526.916H224.922L227.018 516.847L241.124 466.809H253.033L230.084 540H219.249ZM257.542 540L280.287 466.809H291.787L314.429 540H302.367L288.209 488.684L286.011 479.842H285.705L283.558 488.684L269.451 540H257.542ZM267.713 522.724L270.78 512.911H300.833L304.002 522.724H267.713Z" fill="white"/>
<g clip-path="url(#clip0_1694_680)">
<path d="M277.029 300.449C277.027 300.454 277.025 300.459 277.022 300.464C277.021 300.466 277.021 300.469 277.02 300.472C277.019 300.473 277.018 300.476 277.018 300.477C277.018 300.477 277.02 300.477 277.048 300.488L279.91 301.137C279.47 306.958 274.459 311.253 267.493 314.42C260.427 317.632 250.8 319.947 240.022 321.544C219.116 324.641 193.504 325.087 172.864 323.893L170.883 323.771C157.086 322.884 148.775 321.32 143.877 319.959C141.425 319.278 139.818 318.644 138.799 318.165C138.288 317.925 137.926 317.724 137.681 317.576C137.662 317.565 137.645 317.553 137.628 317.543L136.673 317.385V316.112C136.687 315.904 136.83 315.444 136.975 315.21C137.167 315 137.598 314.727 137.813 314.656C138.058 314.596 138.274 314.611 138.416 314.634L138.417 314.633C163.905 318.844 206.766 319.654 241.94 313.314L243.609 313.007C259.335 310.033 267.794 306.709 272.279 304.2C274.516 302.949 275.743 301.913 276.388 301.244C276.71 300.91 276.886 300.668 276.972 300.536C277.015 300.47 277.036 300.432 277.041 300.422L277.029 300.449ZM137.38 317.385C137.378 317.384 137.377 317.383 137.376 317.382C137.374 317.38 137.371 317.38 137.37 317.379C137.371 317.38 137.375 317.382 137.38 317.385ZM131.606 286.428C134.412 285.928 137.112 285.671 139.442 285.761C141.722 285.848 143.871 286.273 145.38 287.336L149.708 290.385L144.424 290.06C144.421 290.059 144.417 290.06 144.412 290.06C144.397 290.059 144.37 290.057 144.333 290.056C144.258 290.053 144.138 290.051 143.977 290.051C143.653 290.051 143.159 290.061 142.508 290.104C141.205 290.191 139.273 290.408 136.811 290.936H136.809C134.442 291.44 129.477 292.92 126.182 294.668C125.366 295.1 124.7 295.525 124.214 295.926C123.705 296.345 123.519 296.638 123.47 296.771C123.463 296.788 123.44 296.75 123.495 296.824C123.608 296.976 123.916 297.256 124.62 297.595L124.946 297.743L124.95 297.745C130.469 300.146 139.757 301.859 151.158 302.917C162.508 303.97 175.791 304.36 189.192 304.19C215.636 303.856 242.303 301.346 255.435 297.549L256.05 297.367C259.397 296.343 261.357 295.29 262.462 294.371C263.535 293.479 263.735 292.779 263.753 292.356C263.773 291.875 263.571 291.394 263.271 290.967C263.128 290.763 262.982 290.598 262.873 290.487C262.819 290.433 262.777 290.393 262.752 290.37L262.729 290.35C262.729 290.35 262.73 290.351 262.731 290.352L262.735 290.355C262.736 290.355 262.737 290.353 262.743 290.346L264.305 287.829C267.357 289.206 269.605 291.082 269.659 293.647C269.686 294.908 269.155 296.062 268.35 297.067C267.547 298.069 266.408 299.009 265.025 299.893C259.548 303.392 249.132 306.7 235.291 309.167C207.501 314.12 165.144 315.807 118.719 308.259V308.258C114.415 307.562 111.286 306.629 109.204 305.465C107.123 304.301 105.771 302.702 105.843 300.655C105.908 298.779 107.182 297.122 108.714 295.771C110.302 294.371 112.464 293.04 114.897 291.839C119.773 289.433 125.998 287.427 131.606 286.428ZM163.163 271.738C163.153 271.744 163.136 271.754 163.112 271.769C163.065 271.798 162.993 271.844 162.904 271.904C162.725 272.026 162.485 272.2 162.241 272.409C161.68 272.891 161.389 273.313 161.338 273.55C161.328 273.597 161.33 273.606 161.353 273.646C161.395 273.719 161.554 273.933 162.056 274.213C163.089 274.79 165.136 275.41 168.882 275.835C187.124 277.902 196.352 277.637 216.464 273.812L217.025 273.705L217.516 274C221.52 276.403 225.703 278.45 230.064 280.141L233.494 281.471L230.113 282.918C207.071 292.783 181.036 292.5 165.199 288.47C161.231 287.46 157.841 286.2 155.273 284.766C152.768 283.367 150.781 281.656 150.057 279.612C149.677 278.54 149.662 277.415 150.066 276.312C150.461 275.238 151.219 274.279 152.231 273.427C154.232 271.742 157.482 270.259 162.011 268.993L163.164 271.725C163.169 271.734 163.17 271.733 163.17 271.733L163.163 271.738ZM157.775 246.218C157.779 246.222 157.779 246.223 157.779 246.223C157.777 246.224 157.773 246.227 157.767 246.231C157.754 246.241 157.733 246.258 157.705 246.28C157.648 246.325 157.563 246.393 157.457 246.482C157.244 246.662 156.953 246.921 156.648 247.234C156.001 247.9 155.45 248.649 155.264 249.3C155.179 249.594 155.187 249.806 155.239 249.972C155.289 250.131 155.422 250.381 155.822 250.684C156.688 251.339 158.571 252.063 162.299 252.452H162.298C181.785 254.477 197.179 254.616 223.847 249.48L224.597 249.336L225.154 249.857C227.762 252.295 230.847 254.139 234.198 255.342L238.535 256.898L234.112 258.192C206.411 266.299 177.136 266.644 159.646 263.284C155.268 262.443 151.562 261.358 148.78 260.067C146.089 258.819 143.901 257.214 143.152 255.124C142.307 252.762 143.495 250.561 145.69 248.767C147.887 246.971 151.44 245.244 156.414 243.594L157.775 246.218ZM249.913 216.642C264.442 211.522 277.898 218.97 279.626 230.481C280.488 236.223 278.327 242.634 272.323 248.51C266.338 254.367 256.505 259.738 241.82 263.596L236.459 265.004L240.379 261.085C240.704 260.76 240.886 260.533 241.004 260.296L241.222 259.86L241.654 259.636C263.341 248.375 268.304 237.766 267.132 230.93C265.942 223.987 258.299 219.696 251.988 221.02L251.959 221.025C250.359 221.328 248.759 221.761 247.205 222.322L242.805 223.911L245.461 220.06C246.549 218.482 248.119 217.294 249.898 216.646L249.906 216.644L249.913 216.642ZM165.965 217.163C166.22 217.169 166.417 217.177 166.553 217.183C166.621 217.186 166.673 217.188 166.71 217.19C166.728 217.191 166.743 217.192 166.754 217.192C166.759 217.193 166.763 217.193 166.767 217.193H166.772C166.773 217.193 166.773 217.206 166.674 218.69L166.773 217.194L167.021 220.15H167.02C167.018 220.151 167.016 220.151 167.014 220.151C167.009 220.152 167.002 220.154 166.992 220.156C166.973 220.161 166.944 220.168 166.905 220.178C166.828 220.196 166.713 220.224 166.564 220.261C166.266 220.334 165.83 220.442 165.285 220.581C164.194 220.86 162.665 221.262 160.915 221.756C157.402 222.747 153.047 224.093 149.559 225.537C147.807 226.262 146.339 226.985 145.318 227.668C144.807 228.01 144.46 228.307 144.251 228.547C144.186 228.622 144.142 228.682 144.113 228.727C144.251 228.859 144.55 229.074 145.134 229.323C146.395 229.862 148.552 230.395 151.919 230.843H151.92C163.261 232.361 186.054 232.012 207.376 230.246L209.004 230.105C217.136 229.381 225.175 228.313 231.312 227.402C234.585 226.917 237.314 226.476 239.223 226.157C240.177 225.998 240.926 225.869 241.437 225.78C241.692 225.736 241.887 225.701 242.019 225.678C242.084 225.666 242.133 225.657 242.166 225.651C242.182 225.648 242.195 225.646 242.203 225.645C242.207 225.644 242.21 225.644 242.212 225.644L242.214 225.643H242.215L243.07 228.498V228.499C243.07 228.499 243.069 228.499 243.067 228.5C243.065 228.501 243.061 228.503 243.056 228.505C243.045 228.509 243.029 228.516 243.007 228.525C242.963 228.544 242.897 228.574 242.812 228.611C242.64 228.687 242.387 228.798 242.069 228.942C241.434 229.231 240.541 229.648 239.511 230.157C237.439 231.182 234.861 232.562 232.726 234.021L232.512 234.167L232.261 234.233C210.642 239.93 179.09 241.433 155.949 240.086C144.417 239.414 134.767 238.025 129.455 236C128.118 235.49 126.96 234.906 126.1 234.218C125.25 233.538 124.507 232.601 124.439 231.387C124.371 230.163 125.012 229.125 125.861 228.304C126.716 227.478 127.947 226.701 129.499 225.95L129.502 225.948C139.746 221.022 149.03 218.832 155.764 217.874C159.131 217.395 161.863 217.224 163.763 217.173C164.713 217.147 165.455 217.152 165.965 217.163ZM245.11 136.896C246.161 137.783 245.949 138.889 245.726 139.458L245.862 139.694C233.251 147.005 224.444 152.982 218.501 158.083C212.542 163.198 209.595 167.321 208.485 170.895C207.402 174.385 208.007 177.567 209.696 181.009C210.993 183.651 212.868 186.336 215.034 189.353L217.287 192.491L217.606 192.952C220.826 197.702 221.527 202.322 220.638 206.571C219.733 210.893 217.216 214.685 214.383 217.773C211.541 220.872 208.295 223.355 205.779 225.056C204.517 225.909 203.429 226.572 202.653 227.023C202.265 227.249 201.955 227.423 201.739 227.541C201.631 227.6 201.547 227.645 201.488 227.676C201.459 227.691 201.436 227.703 201.42 227.712C201.412 227.716 201.406 227.719 201.401 227.722L201.394 227.726L200.704 226.394L201.393 227.727L199.756 225.24C199.751 225.235 199.751 225.234 199.751 225.234C199.752 225.234 199.753 225.233 199.754 225.232C199.758 225.229 199.765 225.223 199.775 225.215C199.796 225.198 199.829 225.169 199.873 225.131C199.961 225.054 200.094 224.934 200.263 224.776C200.6 224.46 201.077 223.988 201.619 223.381C202.708 222.161 204.03 220.428 205.018 218.343C206.003 216.261 206.636 213.873 206.416 211.306C206.197 208.757 205.129 205.912 202.518 202.909L202.517 202.908C192.822 191.742 190.405 181.815 192.683 173.188C194.931 164.672 201.653 157.835 209.322 152.546C217.022 147.236 225.891 143.339 232.795 140.774C236.254 139.49 239.236 138.534 241.354 137.898C242.414 137.581 243.258 137.343 243.839 137.184C244.129 137.104 244.354 137.045 244.506 137.005C244.515 137.002 244.524 136.999 244.532 136.997L244.707 136.896H245.11ZM217.125 89.9395L216.064 91C217.063 90.001 217.123 89.9438 217.127 89.9414L217.157 89.9717C217.174 89.9885 217.196 90.0114 217.223 90.04C217.277 90.0974 217.351 90.1788 217.444 90.2832C217.63 90.4921 217.889 90.7943 218.194 91.1885C218.805 91.9764 219.61 93.133 220.418 94.6357C222.034 97.6428 223.664 102.049 223.744 107.665C223.906 118.96 217.814 134.651 194.11 153.349C184.808 160.692 179.781 167.132 177.478 172.872C175.196 178.558 175.533 183.694 177.249 188.601C178.987 193.571 182.13 198.282 185.483 203.072C188.789 207.794 192.327 212.626 194.553 217.628L192.177 219.351C181.203 209.44 171.516 199.984 165.961 190.897C163.173 186.337 161.369 181.782 161.012 177.236C160.652 172.656 161.769 168.182 164.655 163.847L164.656 163.845C168.765 157.699 174.648 152.396 180.877 147.349C187.172 142.248 193.746 137.462 199.595 132.165C205.412 126.897 210.319 121.281 213.2 114.717C216.063 108.194 216.968 100.633 214.611 91.3701L213.265 86.0791L217.125 89.9395ZM215.002 92.0586V92.0596V92.0586Z" fill="#FF2688" stroke="#FF2688" stroke-width="3"/>
</g>
<defs>
<clipPath id="clip0_1694_680">
<rect width="174" height="232" fill="white" transform="translate(106 91)"/>
</clipPath>
</defs>
</svg>
