<svg width="388" height="581" viewBox="0 0 388 581" fill="none" xmlns="http://www.w3.org/2000/svg">
<rect width="388" height="581" fill="#FBFBFB"/>
<rect y="417" width="388" height="164" fill="#8800FF"/>
<path d="M102.182 541.687C96.2532 541.687 91.1762 540.051 86.951 536.78C82.7599 533.475 79.8806 528.909 78.3132 523.082L89.0465 519.453C91.0228 526.984 95.2821 530.749 101.824 530.749C105.334 530.749 107.992 529.573 109.798 527.222C111.604 524.837 112.507 521.344 112.507 516.744V466.809H124.109V517C124.109 522.077 123.223 526.473 121.451 530.187C119.679 533.867 117.158 536.712 113.887 538.722C110.615 540.699 106.714 541.687 102.182 541.687ZM140.322 540V466.809H163.629C168.501 466.809 172.727 467.763 176.304 469.671C179.882 471.579 182.642 474.271 184.584 477.747C186.561 481.222 187.549 485.294 187.549 489.962V491.291C187.549 495.993 186.561 500.082 184.584 503.558C182.642 506.999 179.882 509.691 176.304 511.633C172.727 513.541 168.501 514.496 163.629 514.496H146.915V503.864H163.373C167.326 503.864 170.393 502.774 172.573 500.593C174.788 498.413 175.895 495.397 175.895 491.547V489.707C175.895 485.822 174.788 482.807 172.573 480.66C170.393 478.479 167.326 477.389 163.373 477.389H151.822V540H140.322ZM202.74 540V466.809H245.469V477.593H214.291V529.216H246.287V540H202.74ZM209.64 507.902V497.169H241.38V507.902H209.64ZM288.362 541.687C282.331 541.687 277.135 540.204 272.773 537.24C268.446 534.241 265.107 529.982 262.756 524.462C260.439 518.942 259.28 512.315 259.28 504.58V502.791C259.28 494.954 260.439 488.224 262.756 482.602C265.073 476.98 268.395 472.67 272.722 469.671C277.084 466.639 282.28 465.122 288.311 465.122C294.172 465.122 299.113 466.57 303.133 469.467C307.188 472.329 310.17 476.503 312.078 481.989L301.651 486.129C300.459 482.721 298.772 480.2 296.591 478.564C294.445 476.895 291.736 476.06 288.465 476.06C282.842 476.06 278.515 478.343 275.482 482.909C272.484 487.475 270.985 494.017 270.985 502.536V504.836C270.985 513.218 272.484 519.658 275.482 524.156C278.481 528.619 282.791 530.851 288.413 530.851C293.116 530.851 296.693 529.25 299.147 526.047C301.634 522.844 302.878 518.227 302.878 512.196V509.64H286.88V499.571H313.867V510.56C313.867 520.407 311.635 528.057 307.171 533.509C302.707 538.961 296.438 541.687 288.362 541.687Z" fill="white"/>
<path d="M225.75 169.667H225.856M98.75 148.5C98.75 140.079 102.095 132.004 108.049 126.049C114.004 120.095 122.079 116.75 130.5 116.75H257.5C265.921 116.75 273.996 120.095 279.951 126.049C285.905 132.004 289.25 140.079 289.25 148.5V275.5C289.25 283.921 285.905 291.996 279.951 297.951C273.996 303.905 265.921 307.25 257.5 307.25H130.5C122.079 307.25 114.004 303.905 108.049 297.951C102.095 291.996 98.75 283.921 98.75 275.5V148.5Z" stroke="#8800FF" stroke-width="20" stroke-linecap="round" stroke-linejoin="round"/>
<path d="M98.75 254.333L151.667 201.417C161.488 191.966 173.595 191.966 183.417 201.417L236.333 254.333" stroke="#8800FF" stroke-width="20" stroke-linecap="round" stroke-linejoin="round"/>
<path d="M215.167 233.167L225.75 222.583C235.572 213.132 247.679 213.132 257.5 222.583L289.25 254.333" stroke="#8800FF" stroke-width="20" stroke-linecap="round" stroke-linejoin="round"/>
</svg>
