<svg width="388" height="581" viewBox="0 0 388 581" fill="none" xmlns="http://www.w3.org/2000/svg">
<rect width="388" height="581" fill="#FBFBFB"/>
<rect width="388" height="581" fill="#FBFBFB"/>
<rect y="417" width="388" height="164" fill="#FFC300"/>
<path d="M163.975 541.687C158.047 541.687 152.97 540.051 148.744 536.78C144.553 533.475 141.674 528.909 140.107 523.082L150.84 519.453C152.816 526.984 157.075 530.749 163.618 530.749C167.127 530.749 169.785 529.573 171.591 527.222C173.397 524.837 174.3 521.344 174.3 516.744V466.809H185.902V517C185.902 522.077 185.016 526.473 183.244 530.187C181.473 533.867 178.951 536.712 175.68 538.722C172.409 540.699 168.507 541.687 163.975 541.687ZM227.313 541.687C222.611 541.687 218.318 540.869 214.433 539.233C210.583 537.564 207.295 535.196 204.569 532.129C201.843 529.028 199.816 525.314 198.487 520.987L209.22 517.562C210.617 521.924 212.849 525.246 215.916 527.529C218.982 529.812 222.747 530.953 227.211 530.953C231.164 530.953 234.247 530.084 236.462 528.347C238.677 526.609 239.784 524.207 239.784 521.14V520.476C239.784 517.886 238.899 515.722 237.127 513.984C235.355 512.247 232.373 510.628 228.182 509.129L218.164 505.449C207.84 501.701 202.678 495.193 202.678 485.924V485.618C202.678 481.529 203.666 477.951 205.642 474.884C207.619 471.818 210.379 469.433 213.922 467.729C217.466 465.991 221.572 465.122 226.24 465.122C232.544 465.122 237.791 466.553 241.982 469.416C246.207 472.244 249.257 476.435 251.131 481.989L240.5 485.567C238.285 479.093 233.549 475.856 226.291 475.856C222.645 475.856 219.715 476.69 217.5 478.36C215.319 480.03 214.229 482.261 214.229 485.056V485.567C214.229 487.781 214.944 489.656 216.376 491.189C217.841 492.688 220.226 494.034 223.531 495.227L233.6 498.907C239.733 501.156 244.214 504.035 247.042 507.544C249.904 511.02 251.336 515.381 251.336 520.629V521.038C251.336 525.161 250.33 528.773 248.32 531.873C246.31 534.974 243.499 537.393 239.887 539.131C236.309 540.835 232.118 541.687 227.313 541.687Z" fill="white"/>
<path d="M210.685 230.588C212.665 234.595 215.734 237.964 219.54 240.307C223.347 242.65 227.737 243.873 232.207 243.835C241.247 243.835 247.023 239.315 247.023 233.074C247.023 225.596 241.087 222.944 231.142 218.59L225.685 216.25C209.946 209.544 199.484 201.141 199.484 183.381C199.484 167.016 211.954 154.566 231.436 154.566C237.758 154.108 244.076 155.525 249.598 158.637C255.121 161.749 259.604 166.42 262.488 172.065L245.499 182.973C244.384 180.176 242.446 177.784 239.942 176.114C237.437 174.444 234.484 173.574 231.474 173.62C230.162 173.489 228.837 173.633 227.583 174.042C226.33 174.451 225.175 175.117 224.193 175.996C223.21 176.876 222.422 177.951 221.878 179.152C221.334 180.353 221.045 181.654 221.032 182.973C221.032 189.52 225.086 192.165 234.419 196.22L239.876 198.553C258.415 206.503 268.876 214.605 268.876 232.825C268.876 252.466 253.449 263.227 232.723 263.227C224.651 263.737 216.604 261.902 209.551 257.943C202.497 253.984 196.739 248.071 192.969 240.915L210.685 230.588ZM133.624 232.5C137.054 238.582 140.171 243.72 147.649 243.72C154.815 243.72 159.341 240.915 159.341 230.014V155.841H181.156V230.32C181.156 252.906 167.909 263.189 148.58 263.189C141.752 263.561 134.971 261.855 129.131 258.298C123.291 254.741 118.666 249.498 115.863 243.261L133.624 232.5Z" fill="#FFC300"/>
</svg>
