<svg width="388" height="581" viewBox="0 0 388 581" fill="none" xmlns="http://www.w3.org/2000/svg">
<rect width="388" height="581" fill="#FBFBFB"/>
<rect width="388" height="581" fill="#FBFBFB"/>
<rect y="417" width="388" height="164" fill="#FF2688"/>
<path d="M102.182 541.687C96.2532 541.687 91.1762 540.051 86.951 536.78C82.7599 533.475 79.8806 528.909 78.3132 523.082L89.0465 519.453C91.0228 526.984 95.2821 530.749 101.824 530.749C105.334 530.749 107.992 529.573 109.798 527.222C111.604 524.837 112.507 521.344 112.507 516.744V466.809H124.109V517C124.109 522.077 123.223 526.473 121.451 530.187C119.679 533.867 117.158 536.712 113.887 538.722C110.615 540.699 106.714 541.687 102.182 541.687ZM165.52 541.687C160.818 541.687 156.524 540.869 152.64 539.233C148.79 537.564 145.501 535.196 142.775 532.129C140.05 529.028 138.022 525.314 136.693 520.987L147.427 517.562C148.824 521.924 151.055 525.246 154.122 527.529C157.189 529.812 160.954 530.953 165.418 530.953C169.37 530.953 172.454 530.084 174.669 528.347C176.884 526.609 177.991 524.207 177.991 521.14V520.476C177.991 517.886 177.105 515.722 175.333 513.984C173.561 512.247 170.58 510.628 166.389 509.129L156.371 505.449C146.047 501.701 140.884 495.193 140.884 485.924V485.618C140.884 481.529 141.873 477.951 143.849 474.884C145.825 471.818 148.585 469.433 152.129 467.729C155.673 465.991 159.778 465.122 164.447 465.122C170.75 465.122 175.998 466.553 180.189 469.416C184.414 472.244 187.464 476.435 189.338 481.989L178.707 485.567C176.492 479.093 171.755 475.856 164.498 475.856C160.852 475.856 157.921 476.69 155.707 478.36C153.526 480.03 152.435 482.261 152.435 485.056V485.567C152.435 487.781 153.151 489.656 154.582 491.189C156.047 492.688 158.433 494.034 161.738 495.227L171.807 498.907C177.94 501.156 182.421 504.035 185.249 507.544C188.111 511.02 189.542 515.381 189.542 520.629V521.038C189.542 525.161 188.537 528.773 186.527 531.873C184.516 534.974 181.705 537.393 178.093 539.131C174.515 540.835 170.324 541.687 165.52 541.687ZM224.667 541.687C219.044 541.687 214.206 540.187 210.151 537.189C206.096 534.19 202.979 529.914 200.798 524.36C198.617 518.772 197.527 512.127 197.527 504.427V502.382C197.527 494.647 198.617 488.003 200.798 482.449C202.979 476.895 206.096 472.619 210.151 469.62C214.206 466.621 219.044 465.122 224.667 465.122C230.289 465.122 235.127 466.621 239.182 469.62C243.237 472.619 246.355 476.895 248.536 482.449C250.716 488.003 251.807 494.647 251.807 502.382V504.427C251.807 512.127 250.716 518.772 248.536 524.36C246.355 529.914 243.237 534.19 239.182 537.189C235.127 540.187 230.289 541.687 224.667 541.687ZM224.667 530.749C229.607 530.749 233.39 528.5 236.013 524.002C238.637 519.504 239.949 513.064 239.949 504.682V502.127C239.949 493.779 238.62 487.356 235.962 482.858C233.339 478.326 229.573 476.06 224.667 476.06C219.794 476.06 216.029 478.326 213.371 482.858C210.713 487.356 209.384 493.779 209.384 502.127V504.682C209.384 513.064 210.696 519.504 213.32 524.002C215.978 528.5 219.76 530.749 224.667 530.749ZM260.149 540V466.809H271.853L300.987 519.351H301.293L300.271 502.484V466.809H311.771V540H301.396L270.882 485.158H270.576L271.649 502.076V540H260.149Z" fill="white"/>
<path fill-rule="evenodd" clip-rule="evenodd" d="M157.597 138.745C157.631 139.861 157.445 140.973 157.049 142.018C156.653 143.062 156.055 144.018 155.289 144.831C154.524 145.644 153.605 146.298 152.587 146.756C151.568 147.214 150.469 147.467 149.352 147.5C145.867 147.602 143.215 148.155 141.235 148.945C139.893 149.424 138.719 150.28 137.852 151.41C137.418 152.133 136.866 153.646 136.866 156.561V183.455C136.866 191.343 134.741 198.602 129.726 204.357L129.641 204.459C128.87 205.309 128.054 206.105 127.193 206.847C128.094 207.646 128.944 208.513 129.743 209.448C134.775 215.109 136.866 222.326 136.866 230.154V257.618C136.866 260.508 137.461 261.987 137.92 262.701L138.022 262.862C138.549 263.712 139.314 264.418 140.768 264.936L141.048 265.047C143.003 265.829 145.697 266.39 149.344 266.492C151.598 266.556 153.735 267.513 155.283 269.152C156.832 270.792 157.666 272.979 157.602 275.234C157.537 277.488 156.58 279.625 154.941 281.173C153.301 282.722 151.114 283.556 148.86 283.492C143.836 283.347 139.11 282.557 134.868 280.882C130.207 279.241 126.24 276.068 123.614 271.881C120.877 267.631 119.866 262.667 119.866 257.618V230.163C119.866 225.335 118.617 222.513 117.001 220.711L116.806 220.49C115.276 218.671 112.301 216.767 106.504 215.73C104.542 215.379 102.766 214.35 101.486 212.823C100.206 211.295 99.5028 209.367 99.5 207.374V206.252C99.4997 204.261 100.198 202.334 101.473 200.805C102.749 199.277 104.52 198.244 106.478 197.888C112.131 196.868 115.25 195.015 116.959 193.145C118.642 191.182 119.866 188.232 119.866 183.455V156.57C119.866 151.427 120.869 146.336 123.665 142.035L123.835 141.797C126.601 137.893 130.456 134.892 134.919 133.169C139.169 131.469 143.87 130.662 148.851 130.509C151.104 130.442 153.291 131.274 154.932 132.82C156.572 134.366 157.531 136.492 157.597 138.745ZM228.403 138.754C228.436 137.637 228.688 136.538 229.146 135.519C229.604 134.501 230.258 133.582 231.071 132.817C231.884 132.051 232.84 131.453 233.885 131.057C234.929 130.661 236.041 130.475 237.158 130.509C242.13 130.662 246.831 131.469 251.081 133.169C255.637 134.927 259.559 138.016 262.335 142.035C265.139 146.336 266.134 151.427 266.134 156.57V183.455C266.134 188.215 267.358 191.173 269.049 193.137C270.75 195.007 273.869 196.851 279.522 197.88C281.48 198.236 283.251 199.268 284.527 200.797C285.802 202.325 286.5 204.253 286.5 206.244V207.366C286.499 209.36 285.797 211.29 284.517 212.819C283.236 214.348 281.459 215.379 279.496 215.73C273.699 216.767 270.715 218.671 269.194 220.49L268.999 220.711C267.383 222.504 266.134 225.335 266.134 230.154V257.618C266.134 262.667 265.114 267.639 262.394 271.881C259.768 276.072 255.797 279.249 251.132 280.891C246.89 282.557 242.164 283.347 237.141 283.492C236.024 283.523 234.913 283.335 233.869 282.937C232.826 282.539 231.871 281.94 231.059 281.173C230.247 280.406 229.595 279.487 229.138 278.468C228.681 277.449 228.43 276.35 228.398 275.234C228.366 274.118 228.555 273.006 228.953 271.963C229.35 270.919 229.95 269.964 230.717 269.152C231.483 268.341 232.403 267.688 233.422 267.231C234.441 266.775 235.54 266.523 236.656 266.492C240.302 266.39 242.997 265.829 244.952 265.047L245.199 264.953L245.232 264.936C246.367 264.597 247.342 263.861 247.978 262.862L248.08 262.692C248.548 261.987 249.134 260.508 249.134 257.618V230.163C249.134 222.326 251.225 215.109 256.266 209.448C257.059 208.513 257.909 207.646 258.816 206.847C257.947 206.107 257.129 205.309 256.367 204.459L256.274 204.357C251.259 198.602 249.134 191.352 249.134 183.447V156.57C249.134 153.654 248.582 152.141 248.148 151.41C247.28 150.283 246.105 149.43 244.765 148.954C242.785 148.163 240.141 147.611 236.648 147.509C235.531 147.476 234.432 147.223 233.413 146.765C232.395 146.307 231.476 145.653 230.711 144.84C229.945 144.027 229.347 143.071 228.951 142.026C228.555 140.982 228.369 139.87 228.403 138.754ZM167.5 224C169.754 224 171.916 224.896 173.51 226.49C175.104 228.084 176 230.246 176 232.5V241C176 243.254 175.104 245.416 173.51 247.01C171.916 248.604 169.754 249.5 167.5 249.5C165.246 249.5 163.084 248.604 161.49 247.01C159.896 245.416 159 243.254 159 241V232.5C159 230.246 159.896 228.084 161.49 226.49C163.084 224.896 165.246 224 167.5 224ZM193 224C195.254 224 197.416 224.896 199.01 226.49C200.604 228.084 201.5 230.246 201.5 232.5V241C201.5 243.254 200.604 245.416 199.01 247.01C197.416 248.604 195.254 249.5 193 249.5C190.746 249.5 188.584 248.604 186.99 247.01C185.396 245.416 184.5 243.254 184.5 241V232.5C184.5 230.246 185.396 228.084 186.99 226.49C188.584 224.896 190.746 224 193 224ZM218.5 224C220.754 224 222.916 224.896 224.51 226.49C226.104 228.084 227 230.246 227 232.5V241C227 243.254 226.104 245.416 224.51 247.01C222.916 248.604 220.754 249.5 218.5 249.5C216.246 249.5 214.084 248.604 212.49 247.01C210.896 245.416 210 243.254 210 241V232.5C210 230.246 210.896 228.084 212.49 226.49C214.084 224.896 216.246 224 218.5 224Z" fill="#FF2688"/>
</svg>
