<svg width="388" height="581" viewBox="0 0 388 581" fill="none" xmlns="http://www.w3.org/2000/svg">
<rect width="388" height="581" fill="#FBFBFB"/>
<rect width="388" height="581" fill="#FBFBFB"/>
<rect y="417" width="388" height="164" fill="#FFC300"/>
<path d="M132.829 541.687C126.9 541.687 121.823 540.051 117.598 536.78C113.407 533.475 110.527 528.909 108.96 523.082L119.693 519.453C121.67 526.984 125.929 530.749 132.471 530.749C135.981 530.749 138.638 529.573 140.444 527.222C142.25 524.837 143.153 521.344 143.153 516.744V466.809H154.755V517C154.755 522.077 153.87 526.473 152.098 530.187C150.326 533.867 147.804 536.712 144.533 538.722C141.262 540.699 137.361 541.687 132.829 541.687ZM196.167 541.687C191.464 541.687 187.171 540.869 183.287 539.233C179.436 537.564 176.148 535.196 173.422 532.129C170.696 529.028 168.669 525.314 167.34 520.987L178.073 517.562C179.47 521.924 181.702 525.246 184.769 527.529C187.836 529.812 191.601 530.953 196.064 530.953C200.017 530.953 203.101 530.084 205.316 528.347C207.53 526.609 208.638 524.207 208.638 521.14V520.476C208.638 517.886 207.752 515.722 205.98 513.984C204.208 512.247 201.227 510.628 197.036 509.129L187.018 505.449C176.693 501.701 171.531 495.193 171.531 485.924V485.618C171.531 481.529 172.519 477.951 174.496 474.884C176.472 471.818 179.232 469.433 182.776 467.729C186.319 465.991 190.425 465.122 195.093 465.122C201.397 465.122 206.644 466.553 210.836 469.416C215.061 472.244 218.11 476.435 219.984 481.989L209.353 485.567C207.138 479.093 202.402 475.856 195.144 475.856C191.498 475.856 188.568 476.69 186.353 478.36C184.173 480.03 183.082 482.261 183.082 485.056V485.567C183.082 487.781 183.798 489.656 185.229 491.189C186.694 492.688 189.079 494.034 192.384 495.227L202.453 498.907C208.587 501.156 213.067 504.035 215.896 507.544C218.758 511.02 220.189 515.381 220.189 520.629V521.038C220.189 525.161 219.184 528.773 217.173 531.873C215.163 534.974 212.352 537.393 208.74 539.131C205.162 540.835 200.971 541.687 196.167 541.687ZM271.107 540L251.224 505.551L249.793 504.887L227.56 466.809H240.491L259.249 499.06L260.68 499.776L284.038 540H271.107ZM226.589 540L250.253 499.98L251.531 499.009L270.442 466.809H283.067L260.527 504.836L259.249 505.756L239.213 540H226.589Z" fill="white"/>
<path d="M193 224.627C202.838 224.627 210.812 216.652 210.812 206.815C210.812 196.977 202.838 189.002 193 189.002C183.162 189.002 175.188 196.977 175.188 206.815C175.188 216.652 183.162 224.627 193 224.627Z" fill="#FFC300"/>
<path d="M193.015 175.859H192.987C171.969 175.585 151.04 178.649 130.983 184.94C121.095 188.392 113.994 192.458 109.386 196.394C104.736 200.367 102.772 204.073 102.771 206.793C102.771 209.658 104.901 213.656 109.867 217.92C114.786 222.142 122.337 226.487 132.79 230.064C152.3 235.916 172.614 238.64 192.976 238.134H193.018C212.977 238.491 232.873 235.791 252.016 230.128C262.878 226.527 270.725 222.164 275.836 217.93C280.955 213.689 283.161 209.725 283.198 206.889C282.852 204.792 282.082 202.787 280.934 200.998C279.77 199.185 278.243 197.633 276.449 196.439L276.42 196.42L276.393 196.398C269.729 191.249 262.209 187.316 254.18 184.776V184.775C234.395 178.569 213.747 175.56 193.015 175.859ZM293.75 206.814C293.75 213.344 289.898 219.759 283.257 225.451C276.602 231.155 267.034 236.237 255.302 240.119L255.287 240.124L255.272 240.128C235.075 246.135 214.076 249.011 193.008 248.655C171.498 249.172 150.042 246.272 129.441 240.062L129.428 240.059C119.84 237.019 110.898 232.232 103.053 225.938C99.9942 223.735 97.4459 220.899 95.583 217.621C93.7123 214.33 92.5769 210.672 92.2539 206.9L92.25 206.857V206.814C92.2501 200.539 95.6966 194.459 101.763 189.048C107.834 183.632 116.617 178.802 127.534 174.998L127.547 174.993L127.561 174.989C148.713 168.271 170.81 165.012 193.001 165.338C214.896 165.037 236.698 168.237 257.582 174.817L257.586 174.818C266.818 177.765 275.456 182.321 283.102 188.275C286.108 190.384 288.618 193.123 290.456 196.302C292.302 199.495 293.425 203.053 293.746 206.727L293.75 206.771V206.814Z" fill="#FFC300" stroke="#FFC300" stroke-width="2"/>
<path d="M232.423 117.24C235.882 117.24 239.301 117.951 242.469 119.327L243.099 119.611L243.138 119.629L243.175 119.65C248.834 122.911 252.466 129.452 254.079 138.048C255.695 146.661 255.319 157.488 252.825 169.589L252.822 169.604L252.818 169.619C247.929 190.123 239.924 209.757 229.084 227.835C218.786 246.723 205.557 263.859 189.888 278.6L189.883 278.605L189.877 278.61C182.453 285.397 173.837 290.751 164.464 294.401L164.457 294.403L164.45 294.406C160.64 295.824 156.617 296.584 152.552 296.655L152.553 296.656C149.052 296.736 145.594 295.887 142.528 294.195L142.52 294.19L142.512 294.185C137.075 291.049 133.53 285.027 131.873 277.069C130.215 269.104 130.417 259.084 132.574 247.725L132.576 247.712L132.579 247.698C137.327 226.023 145.543 205.256 156.908 186.199C167.584 167.078 181.248 149.785 197.383 134.977L197.386 134.975C204.551 128.449 212.814 123.24 221.793 119.591C225.123 118.043 228.75 117.24 232.423 117.24ZM238.008 128.767C236.017 128.018 233.894 127.684 231.77 127.785C229.617 127.888 227.509 128.435 225.578 129.392L225.548 129.408L225.516 129.421C217.728 132.635 210.568 137.198 204.364 142.899C189.104 156.943 176.181 173.332 166.086 191.448L165.49 192.517L165.419 192.456C154.995 210.24 147.402 229.541 142.918 249.666L142.74 250.625C140.963 260.474 140.972 268.336 142.05 274.111C143.171 280.124 145.408 283.681 147.779 285.051H147.78C150.247 286.478 154.773 286.633 160.953 284.461C167.07 282.311 174.611 277.944 182.93 270.681C197.745 256.697 210.251 240.453 219.98 222.554L219.99 222.535L220.002 222.516C230.285 205.404 237.887 186.819 242.547 167.406C244.855 156.192 244.999 147.21 243.888 140.664C242.774 134.107 240.445 130.215 238.008 128.767Z" fill="#FFC300" stroke="#FFC300" stroke-width="2"/>
<path d="M142.367 119.922C148.019 116.649 155.499 116.77 163.751 119.665C171.762 122.475 180.638 127.942 189.584 135.737L190.45 136.498L190.462 136.509L190.473 136.519C205.793 150.993 218.804 167.73 229.053 186.146C240.275 204.504 248.513 224.526 253.459 245.466L253.461 245.473L253.463 245.48C255.633 255.294 255.969 265.424 254.455 275.36C254.083 279.117 252.903 282.749 250.997 286.009C249.087 289.276 246.492 292.09 243.391 294.26L243.348 294.29L243.302 294.315C240.283 295.984 236.875 296.824 233.427 296.749V296.748C223.419 296.739 210.937 290.714 198.111 279.685L198.101 279.676L198.091 279.666C181.675 264.722 167.78 247.225 156.943 227.851V227.85C145.718 209.057 137.568 188.591 132.801 167.225L132.8 167.222C130.722 157.752 130.336 147.99 131.658 138.386C131.983 134.733 133.1 131.194 134.932 128.017C136.769 124.829 139.282 122.082 142.294 119.969L142.329 119.944L142.367 119.922ZM160.952 129.809C154.716 127.5 150.181 127.574 147.709 128.963C146.068 130.313 144.719 131.984 143.747 133.874C142.762 135.789 142.183 137.888 142.049 140.038L142.047 140.073L142.042 140.107C140.926 148.455 141.29 156.935 143.117 165.157L143.553 167.052C148.147 186.604 155.736 205.334 166.056 222.575L165.87 222.685L166.062 222.584C176.356 240.913 189.495 257.492 204.989 271.699C212.929 278.528 220.001 282.634 225.713 284.643C231.478 286.672 235.664 286.501 238.015 285.119L238.019 285.116C240.488 283.681 242.882 279.835 244.086 273.401C245.278 267.03 245.259 258.319 243.116 247.481C238.396 227.688 230.572 208.766 219.935 191.42L219.923 191.401L219.913 191.383C210.229 173.924 197.928 158.05 183.44 144.313H183.439C174.881 136.72 167.175 132.113 160.952 129.809Z" fill="#FFC300" stroke="#FFC300" stroke-width="2"/>
</svg>
