<svg width="388" height="581" viewBox="0 0 388 581" fill="none" xmlns="http://www.w3.org/2000/svg">
<rect width="388" height="581" fill="#FBFBFB"/>
<rect y="417" width="388" height="164" fill="#FF264E"/>
<path d="M105.944 540V466.809H117.24L128.178 492.569L132.522 504.938H132.931L137.275 492.569L148.213 466.809H159.509V540H148.673V505.96L149.849 485.516H149.44L136.713 517H128.74L116.013 485.516H115.604L116.78 505.96V540H105.944ZM208.74 540L181.651 503.251V502.893L207.82 466.809H221.416L193.049 505.04V500.44L222.54 540H208.74ZM170.407 540V466.809H182.009V540H170.407ZM249.896 540L226.947 466.809H239.009L253.269 516.847L255.262 526.916H255.569L257.664 516.847L271.771 466.809H283.68L260.731 540H249.896Z" fill="white"/>
<path d="M289.251 116.75H98.7507C87.109 116.75 77.584 126.275 77.584 137.917V264.917C77.584 276.558 87.109 286.083 98.7507 286.083H151.667V296.667C151.667 302.487 156.43 307.25 162.251 307.25H225.751C231.571 307.25 236.334 302.487 236.334 296.667V286.083H289.251C300.892 286.083 310.311 276.558 310.311 264.917L310.417 137.917C310.417 132.303 308.187 126.919 304.218 122.95C300.248 118.98 294.864 116.75 289.251 116.75ZM278.667 264.917H109.334C103.513 264.917 98.7507 260.154 98.7507 254.333V148.5C98.7507 142.679 103.513 137.917 109.334 137.917H278.667C284.488 137.917 289.251 142.679 289.251 148.5V254.333C289.251 260.154 284.488 264.917 278.667 264.917ZM220.247 210.624L178.126 234.754C171.035 238.776 162.251 233.59 162.251 225.547V177.287C162.251 169.138 171.035 164.057 178.126 168.079L220.247 192.209C227.338 196.337 227.338 206.497 220.247 210.624Z" fill="#FF264E"/>
</svg>
