<svg width="388" height="581" viewBox="0 0 388 581" fill="none" xmlns="http://www.w3.org/2000/svg">
<rect width="388" height="581" fill="#FBFBFB"/>
<rect y="417" width="388" height="164" fill="#2651FF"/>
<path d="M105.944 540V466.809H117.24L128.178 492.569L132.522 504.938H132.931L137.275 492.569L148.213 466.809H159.509V540H148.673V505.96L149.849 485.516H149.44L136.713 517H128.74L116.013 485.516H115.604L116.78 505.96V540H105.944ZM194.02 541.687C188.398 541.687 183.559 540.187 179.504 537.189C175.45 534.19 172.332 529.914 170.151 524.36C167.97 518.772 166.88 512.127 166.88 504.427V502.382C166.88 494.647 167.97 488.003 170.151 482.449C172.332 476.895 175.45 472.619 179.504 469.62C183.559 466.621 188.398 465.122 194.02 465.122C199.642 465.122 204.481 466.621 208.536 469.62C212.59 472.619 215.708 476.895 217.889 482.449C220.07 488.003 221.16 494.647 221.16 502.382V504.427C221.16 512.127 220.07 518.772 217.889 524.36C215.708 529.914 212.59 534.19 208.536 537.189C204.481 540.187 199.642 541.687 194.02 541.687ZM194.02 530.749C198.961 530.749 202.743 528.5 205.367 524.002C207.99 519.504 209.302 513.064 209.302 504.682V502.127C209.302 493.779 207.973 487.356 205.316 482.858C202.692 478.326 198.927 476.06 194.02 476.06C189.147 476.06 185.382 478.326 182.724 482.858C180.067 487.356 178.738 493.779 178.738 502.127V504.682C178.738 513.064 180.05 519.504 182.673 524.002C185.331 528.5 189.113 530.749 194.02 530.749ZM249.896 540L226.947 466.809H239.009L253.269 516.847L255.262 526.916H255.569L257.664 516.847L271.771 466.809H283.68L260.731 540H249.896Z" fill="white"/>
<path d="M289.25 116.75H98.7497C87.108 116.75 77.583 126.275 77.583 137.917V264.917C77.583 276.558 87.108 286.083 98.7497 286.083H151.666V296.667C151.666 302.487 156.429 307.25 162.25 307.25H225.75C231.571 307.25 236.333 302.487 236.333 296.667V286.083H289.25C300.891 286.083 310.311 276.558 310.311 264.917L310.416 137.917C310.416 132.303 308.186 126.919 304.217 122.95C300.247 118.98 294.863 116.75 289.25 116.75ZM278.666 264.917H109.333C103.512 264.917 98.7497 260.154 98.7497 254.333V148.5C98.7497 142.679 103.512 137.917 109.333 137.917H278.666C284.487 137.917 289.25 142.679 289.25 148.5V254.333C289.25 260.154 284.487 264.917 278.666 264.917ZM220.246 210.624L178.125 234.754C171.034 238.776 162.25 233.59 162.25 225.547V177.287C162.25 169.138 171.034 164.057 178.125 168.079L220.246 192.209C227.337 196.337 227.337 206.497 220.246 210.624Z" fill="#2651FF"/>
</svg>
