<svg width="388" height="581" viewBox="0 0 388 581" fill="none" xmlns="http://www.w3.org/2000/svg">
<rect width="388" height="581" fill="#FBFBFB"/>
<rect y="417" width="388" height="164" fill="#FF9A00"/>
<path d="M105.944 540V466.809H117.24L128.178 492.569L132.522 504.938H132.931L137.275 492.569L148.213 466.809H159.509V540H148.673V505.96L149.849 485.516H149.44L136.713 517H128.74L116.013 485.516H115.604L116.78 505.96V540H105.944ZM170.969 540V466.809H194.276C199.148 466.809 203.373 467.763 206.951 469.671C210.529 471.579 213.289 474.271 215.231 477.747C217.207 481.222 218.196 485.294 218.196 489.962V491.291C218.196 495.993 217.207 500.082 215.231 503.558C213.289 506.999 210.529 509.691 206.951 511.633C203.373 513.541 199.148 514.496 194.276 514.496H177.562V503.864H194.02C197.973 503.864 201.039 502.774 203.22 500.593C205.435 498.413 206.542 495.397 206.542 491.547V489.707C206.542 485.822 205.435 482.807 203.22 480.66C201.039 478.479 197.973 477.389 194.02 477.389H182.469V540H170.969ZM256.796 541.636C249.844 541.636 244.001 539.932 239.264 536.524C234.562 533.117 231.393 528.347 229.758 522.213L240.287 518.891C241.343 522.707 243.234 525.638 245.96 527.682C248.72 529.693 252.093 530.698 256.08 530.698C259.794 530.698 262.776 529.744 265.024 527.836C267.273 525.893 268.398 523.287 268.398 520.016V518.789C268.398 515.347 267.222 512.673 264.871 510.764C262.554 508.856 259.164 507.902 254.7 507.902H246.624V497.067H253.473C257.46 497.067 260.578 496.147 262.827 494.307C265.076 492.467 266.2 489.911 266.2 486.64V485.72C266.2 482.79 265.246 480.456 263.338 478.718C261.464 476.946 258.84 476.06 255.467 476.06C252.196 476.06 249.402 476.895 247.084 478.564C244.767 480.2 243.081 482.551 242.024 485.618L231.393 482.091C233.131 476.776 236.181 472.636 240.542 469.671C244.938 466.673 250.117 465.173 256.08 465.173C260.442 465.173 264.258 465.991 267.529 467.627C270.8 469.228 273.339 471.477 275.144 474.373C276.984 477.236 277.904 480.592 277.904 484.442V484.953C277.904 489.11 276.831 492.654 274.684 495.584C272.572 498.481 269.454 500.559 265.331 501.82V502.127C269.999 503.115 273.611 505.244 276.167 508.516C278.756 511.753 280.051 515.62 280.051 520.118V520.987C280.051 525.007 279.046 528.568 277.036 531.669C275.059 534.77 272.316 537.206 268.807 538.978C265.331 540.75 261.327 541.636 256.796 541.636Z" fill="white"/>
<path d="M109 195V220.5M143 161V254.5M177 135.5V288.5M211 178V237.5M245 152.5V263M279 195V220.5" stroke="#FF9A00" stroke-width="21" stroke-linecap="round" stroke-linejoin="round"/>
</svg>
