<svg width="388" height="581" viewBox="0 0 388 581" fill="none" xmlns="http://www.w3.org/2000/svg">
<rect width="388" height="581" fill="#FBFBFB"/>
<rect y="417" width="388" height="164" fill="#6B26FF"/>
<path d="M105.944 540V466.809H117.24L128.178 492.569L132.522 504.938H132.931L137.275 492.569L148.213 466.809H159.509V540H148.673V505.96L149.849 485.516H149.44L136.713 517H128.74L116.013 485.516H115.604L116.78 505.96V540H105.944ZM170.969 540V466.809H194.276C199.148 466.809 203.373 467.763 206.951 469.671C210.529 471.579 213.289 474.271 215.231 477.747C217.207 481.222 218.196 485.294 218.196 489.962V491.291C218.196 495.993 217.207 500.082 215.231 503.558C213.289 506.999 210.529 509.691 206.951 511.633C203.373 513.541 199.148 514.496 194.276 514.496H177.562V503.864H194.02C197.973 503.864 201.039 502.774 203.22 500.593C205.435 498.413 206.542 495.397 206.542 491.547V489.707C206.542 485.822 205.435 482.807 203.22 480.66C201.039 478.479 197.973 477.389 194.02 477.389H182.469V540H170.969ZM260.067 540V518.022L260.578 515.824V478.462L263.951 482.551H260.271L240.082 512.298V512.604H264.922L267.682 512.196H282.096V522.622H228.02V513.269L259.453 466.809H271.413V540H260.067Z" fill="white"/>
<path d="M289.25 116.75H98.7497C87.108 116.75 77.583 126.275 77.583 137.917V264.917C77.583 276.558 87.108 286.083 98.7497 286.083H151.666V296.667C151.666 302.487 156.429 307.25 162.25 307.25H225.75C231.571 307.25 236.333 302.487 236.333 296.667V286.083H289.25C300.891 286.083 310.311 276.558 310.311 264.917L310.416 137.917C310.416 132.303 308.186 126.919 304.217 122.95C300.247 118.98 294.863 116.75 289.25 116.75ZM278.666 264.917H109.333C103.512 264.917 98.7497 260.154 98.7497 254.333V148.5C98.7497 142.679 103.512 137.917 109.333 137.917H278.666C284.487 137.917 289.25 142.679 289.25 148.5V254.333C289.25 260.154 284.487 264.917 278.666 264.917ZM220.246 210.624L178.125 234.754C171.034 238.776 162.25 233.59 162.25 225.547V177.287C162.25 169.138 171.034 164.057 178.125 168.079L220.246 192.209C227.337 196.337 227.337 206.497 220.246 210.624Z" fill="#6B26FF"/>
</svg>
