<svg width="388" height="581" viewBox="0 0 388 581" fill="none" xmlns="http://www.w3.org/2000/svg">
<rect width="388" height="581" fill="#FBFBFB"/>
<rect width="388" height="581" fill="#FBFBFB"/>
<rect y="417" width="388" height="164" fill="black"/>
<path d="M76.2687 540V466.809H87.9732L117.107 519.351H117.413L116.391 502.484V466.809H127.891V540H117.515L87.0021 485.158H86.6954L87.7687 502.076V540H76.2687ZM141.447 540V466.809H184.175V477.593H152.998V529.216H184.993V540H141.447ZM148.347 507.902V497.169H180.087V507.902H148.347ZM240.46 540L220.578 505.551L219.147 504.887L196.913 466.809H209.844L228.602 499.06L230.033 499.776L253.391 540H240.46ZM195.942 540L219.607 499.98L220.884 499.009L239.796 466.809H252.42L229.88 504.836L228.602 505.756L208.567 540H195.942ZM280.133 540V472.124H291.787V540H280.133ZM260.302 477.747V466.809H311.618V477.747H260.302Z" fill="white"/>
<path d="M297.5 298.656H88.5L193 115.344L297.5 298.656Z" fill="black"/>
</svg>
