<svg width="388" height="581" viewBox="0 0 388 581" fill="none" xmlns="http://www.w3.org/2000/svg">
<rect width="388" height="581" fill="#FBFBFB"/>
<rect width="388" height="581" fill="#FBFBFB"/>
<rect y="417" width="388" height="164" fill="#FF264E"/>
<path d="M138.062 540V466.809H149.767L178.9 519.351H179.207L178.184 502.484V466.809H189.684V540H179.309L148.795 485.158H148.489L149.562 502.076V540H138.062ZM227.569 541.687C221.538 541.687 216.341 540.204 211.98 537.24C207.653 534.241 204.313 529.982 201.962 524.462C199.645 518.942 198.487 512.315 198.487 504.58V502.791C198.487 494.954 199.645 488.224 201.962 482.602C204.279 476.98 207.601 472.67 211.929 469.671C216.29 466.639 221.487 465.122 227.518 465.122C233.379 465.122 238.319 466.57 242.34 469.467C246.395 472.329 249.376 476.503 251.284 481.989L240.858 486.129C239.665 482.721 237.979 480.2 235.798 478.564C233.651 476.895 230.942 476.06 227.671 476.06C222.049 476.06 217.721 478.343 214.689 482.909C211.69 487.475 210.191 494.017 210.191 502.536V504.836C210.191 513.218 211.69 519.658 214.689 524.156C217.687 528.619 221.998 530.851 227.62 530.851C232.322 530.851 235.9 529.25 238.353 526.047C240.841 522.844 242.084 518.227 242.084 512.196V509.64H226.087V499.571H253.073V510.56C253.073 520.407 250.841 528.057 246.378 533.509C241.914 538.961 235.644 541.687 227.569 541.687Z" fill="white"/>
<path d="M193 102.5L290.24 137.15L275.5 265.85L193 311.5L110.5 265.85L95.7598 137.15L193 102.5ZM193 125.6L132.17 262H154.83L167.04 231.42H218.74L230.95 262H253.5L193 125.6ZM210.82 212.5H175.29L193 169.93L210.82 212.5Z" fill="#FF264E"/>
</svg>
