<svg width="388" height="581" viewBox="0 0 388 581" fill="none" xmlns="http://www.w3.org/2000/svg">
<rect width="388" height="581" fill="#FBFBFB"/>
<rect width="388" height="581" fill="#FBFBFB"/>
<rect y="417" width="388" height="164" fill="#49C336"/>
<path d="M76.2687 540V466.809H87.9732L117.107 519.351H117.413L116.391 502.484V466.809H127.891V540H117.515L87.0021 485.158H86.6954L87.7687 502.076V540H76.2687ZM163.373 541.687C157.751 541.687 152.913 540.187 148.858 537.189C144.803 534.19 141.685 529.914 139.504 524.36C137.324 518.772 136.233 512.127 136.233 504.427V502.382C136.233 494.647 137.324 488.003 139.504 482.449C141.685 476.895 144.803 472.619 148.858 469.62C152.913 466.621 157.751 465.122 163.373 465.122C168.995 465.122 173.834 466.621 177.889 469.62C181.944 472.619 185.061 476.895 187.242 482.449C189.423 488.003 190.513 494.647 190.513 502.382V504.427C190.513 512.127 189.423 518.772 187.242 524.36C185.061 529.914 181.944 534.19 177.889 537.189C173.834 540.187 168.995 541.687 163.373 541.687ZM163.373 530.749C168.314 530.749 172.096 528.5 174.72 524.002C177.344 519.504 178.655 513.064 178.655 504.682V502.127C178.655 493.779 177.327 487.356 174.669 482.858C172.045 478.326 168.28 476.06 163.373 476.06C158.501 476.06 154.735 478.326 152.078 482.858C149.42 487.356 148.091 493.779 148.091 502.127V504.682C148.091 513.064 149.403 519.504 152.027 524.002C154.684 528.5 158.467 530.749 163.373 530.749ZM200.747 540V466.809H220.731C226.933 466.809 232.231 468.24 236.627 471.102C241.056 473.93 244.464 478.002 246.849 483.318C249.234 488.633 250.427 494.988 250.427 502.382V504.427C250.427 511.787 249.234 518.141 246.849 523.491C244.464 528.807 241.056 532.896 236.627 535.758C232.231 538.586 226.933 540 220.731 540H200.747ZM212.247 529.164H220.476C226.473 529.164 230.987 527.103 234.02 522.98C237.087 518.857 238.62 512.758 238.62 504.682V502.127C238.62 494.051 237.087 487.952 234.02 483.829C230.987 479.706 226.473 477.644 220.476 477.644H212.247V529.164ZM264.033 540V466.809H306.762V477.593H275.585V529.216H307.58V540H264.033ZM270.933 507.902V497.169H302.673V507.902H270.933Z" fill="white"/>
<path d="M271.735 149.938L201.306 107.698C198.776 106.255 195.914 105.497 193.003 105.497C190.091 105.497 187.229 106.255 184.699 107.698L114.265 149.933C111.727 151.489 109.633 153.673 108.185 156.274C106.737 158.875 105.985 161.805 106 164.782V249.141C105.985 252.119 106.738 255.052 108.185 257.655C109.633 260.258 111.727 262.445 114.265 264.003L132.735 275.032L132.839 275.091C142.164 279.863 145.735 279.863 149.872 279.863C164.435 279.863 173.484 270.438 173.484 255.262V173.469C173.493 172.448 173.096 171.465 172.38 170.736C171.665 170.007 170.69 169.592 169.669 169.581H159.528C158.507 169.592 157.532 170.007 156.816 170.736C156.101 171.465 155.704 172.448 155.713 173.469V255.262C155.749 256.433 155.483 257.594 154.939 258.632C154.395 259.669 153.593 260.549 152.609 261.185C149.935 262.816 146.052 262.472 141.67 260.21L123.971 249.558C123.903 249.511 123.848 249.449 123.81 249.376C123.772 249.304 123.753 249.223 123.754 249.141V165.974C123.757 165.878 123.782 165.785 123.829 165.701C123.875 165.618 123.941 165.547 124.021 165.494L192.824 123.353C192.875 123.328 192.932 123.314 192.989 123.314C193.046 123.314 193.103 123.328 193.154 123.353L261.998 165.494C262.076 165.551 262.139 165.626 262.183 165.713C262.226 165.799 262.248 165.895 262.247 165.992V249.141C262.249 249.227 262.231 249.312 262.196 249.39C262.161 249.469 262.108 249.538 262.043 249.594L193.141 290.67C193.023 290.71 192.896 290.71 192.778 290.67L175.183 280.22C174.661 279.879 174.058 279.682 173.434 279.649C172.811 279.617 172.191 279.75 171.635 280.035L171.481 280.125C166.624 283.003 165.319 283.75 160.815 285.391C160.081 285.658 158.354 286.297 158.205 288.005C158.055 289.713 159.696 290.928 161.155 291.775L184.672 306.216C187.178 307.717 190.043 308.511 192.964 308.514H193.227C196.075 308.469 198.861 307.677 201.306 306.216L271.735 264.017C274.272 262.453 276.365 260.264 277.812 257.659C279.26 255.054 280.013 252.121 280 249.141V164.782C280.015 161.806 279.261 158.877 277.814 156.277C276.366 153.676 274.273 151.493 271.735 149.938Z" fill="#49C336"/>
<path d="M216.509 235.116C199.612 235.116 196.009 230.395 194.94 222.773C194.82 221.866 194.377 221.032 193.694 220.423C193.01 219.814 192.13 219.471 191.215 219.456H182.243C181.232 219.478 180.271 219.899 179.569 220.628C178.868 221.356 178.484 222.333 178.501 223.344C178.501 229.951 180.821 251.515 216.527 251.515C227.574 251.515 236.763 248.932 243.094 244.043C249.424 239.154 252.813 232.04 252.813 223.562C252.813 206.547 241.711 201.889 219.848 198.844C197.622 195.753 197.622 194.181 197.622 190.737C197.622 188.259 197.622 182.454 213.69 182.454C225.123 182.454 231.244 183.9 233.202 191.517C233.375 192.361 233.832 193.121 234.496 193.671C235.16 194.22 235.992 194.527 236.854 194.539H245.858C246.388 194.534 246.912 194.416 247.393 194.192C247.874 193.969 248.302 193.645 248.649 193.243C249.341 192.435 249.687 191.386 249.609 190.325C248.445 174.216 236.668 166.047 213.704 166.047C192.833 166.047 180.376 175.449 180.376 191.195C180.376 208.459 193.286 213.339 212.68 215.36C235.336 217.703 235.336 221.119 235.336 224.137C235.35 228.841 233.397 235.116 216.509 235.116Z" fill="#49C336"/>
</svg>
