<svg width="388" height="581" viewBox="0 0 388 581" fill="none" xmlns="http://www.w3.org/2000/svg">
<rect width="388" height="581" fill="#FBFBFB"/>
<rect width="388" height="581" fill="#FBFBFB"/>
<rect y="417" width="388" height="164" fill="#00DC82"/>
<path d="M76.2687 540V466.809H87.9732L117.107 519.351H117.413L116.391 502.484V466.809H127.891V540H117.515L87.0021 485.158H86.6954L87.7687 502.076V540H76.2687ZM163.373 541.687C158.569 541.687 154.361 540.647 150.749 538.569C147.137 536.456 144.326 533.543 142.315 529.829C140.305 526.081 139.3 521.753 139.3 516.847V466.809H150.851V516.336C150.851 520.765 151.958 524.275 154.173 526.864C156.422 529.454 159.489 530.749 163.373 530.749C167.292 530.749 170.358 529.454 172.573 526.864C174.788 524.275 175.895 520.765 175.895 516.336V466.809H187.447V516.847C187.447 521.753 186.441 526.081 184.431 529.829C182.421 533.543 179.61 536.456 175.998 538.569C172.42 540.647 168.212 541.687 163.373 541.687ZM240.46 540L220.578 505.551L219.147 504.887L196.913 466.809H209.844L228.602 499.06L230.033 499.776L253.391 540H240.46ZM195.942 540L219.607 499.98L220.884 499.009L239.796 466.809H252.42L229.88 504.836L228.602 505.756L208.567 540H195.942ZM280.133 540V472.124H291.787V540H280.133ZM260.302 477.747V466.809H311.618V477.747H260.302Z" fill="white"/>
<g clip-path="url(#clip0_1699_779)">
<path d="M209.298 291.017H305.564C308.622 291.017 311.625 290.237 314.273 288.754C316.904 287.287 319.103 285.153 320.648 282.566C322.173 280.011 322.978 277.09 322.978 274.115C322.978 271.148 322.17 268.234 320.64 265.665L255.992 157.012C254.446 154.426 252.248 152.293 249.618 150.826C246.957 149.338 243.959 148.558 240.91 148.561C237.852 148.561 234.85 149.343 232.202 150.826C229.572 152.293 227.374 154.426 225.829 157.012L209.298 184.812L176.979 130.448C175.432 127.864 173.233 125.731 170.603 124.264C167.94 122.777 164.942 121.998 161.893 122C158.836 122 155.832 122.781 153.184 124.264C150.554 125.731 148.355 127.864 146.808 130.448L66.3582 265.665C64.8316 268.219 64.0242 271.139 64.0215 274.115C64.0215 277.081 64.8236 279.997 66.3521 282.566C67.8972 285.153 70.0958 287.287 72.7269 288.754C75.3884 290.242 78.3873 291.021 81.4363 291.017H141.863C165.806 291.017 183.461 280.813 195.611 260.905L225.107 211.339L240.905 184.812L288.321 264.491H225.107L209.298 291.017ZM140.877 264.465L98.7076 264.455L161.921 158.222L193.463 211.339L172.344 246.841C164.276 259.758 155.111 264.464 140.878 264.464" fill="#00DC82"/>
</g>
<defs>
<clipPath id="clip0_1699_779">
<rect width="259" height="170" fill="white" transform="translate(64 122)"/>
</clipPath>
</defs>
</svg>
