<svg width="388" height="581" viewBox="0 0 388 581" fill="none" xmlns="http://www.w3.org/2000/svg">
<rect width="388" height="581" fill="#FBFBFB"/>
<rect y="417" width="388" height="164" fill="#36C381"/>
<path d="M132.727 541.687C127.104 541.687 122.266 540.187 118.211 537.189C114.156 534.19 111.038 529.914 108.858 524.36C106.677 518.772 105.587 512.127 105.587 504.427V502.382C105.587 494.647 106.677 488.003 108.858 482.449C111.038 476.895 114.156 472.619 118.211 469.62C122.266 466.621 127.104 465.122 132.727 465.122C138.349 465.122 143.187 466.621 147.242 469.62C151.297 472.619 154.415 476.895 156.595 482.449C158.776 488.003 159.867 494.647 159.867 502.382V504.427C159.867 512.127 158.776 518.772 156.595 524.36C154.415 529.914 151.297 534.19 147.242 537.189C143.187 540.187 138.349 541.687 132.727 541.687ZM132.727 530.749C137.667 530.749 141.45 528.5 144.073 524.002C146.697 519.504 148.009 513.064 148.009 504.682V502.127C148.009 493.779 146.68 487.356 144.022 482.858C141.398 478.326 137.633 476.06 132.727 476.06C127.854 476.06 124.089 478.326 121.431 482.858C118.773 487.356 117.444 493.779 117.444 502.127V504.682C117.444 513.064 118.756 519.504 121.38 524.002C124.038 528.5 127.82 530.749 132.727 530.749ZM196.422 541.687C190.391 541.687 185.195 540.204 180.833 537.24C176.506 534.241 173.167 529.982 170.816 524.462C168.498 518.942 167.34 512.315 167.34 504.58V502.791C167.34 494.954 168.498 488.224 170.816 482.602C173.133 476.98 176.455 472.67 180.782 469.671C185.144 466.639 190.34 465.122 196.371 465.122C202.232 465.122 207.173 466.57 211.193 469.467C215.248 472.329 218.23 476.503 220.138 481.989L209.711 486.129C208.518 482.721 206.832 480.2 204.651 478.564C202.504 476.895 199.796 476.06 196.524 476.06C190.902 476.06 186.575 478.343 183.542 482.909C180.544 487.475 179.044 494.017 179.044 502.536V504.836C179.044 513.218 180.544 519.658 183.542 524.156C186.541 528.619 190.851 530.851 196.473 530.851C201.176 530.851 204.753 529.25 207.207 526.047C209.694 522.844 210.938 518.227 210.938 512.196V509.64H194.94V499.571H221.927V510.56C221.927 520.407 219.695 528.057 215.231 533.509C210.767 538.961 204.498 541.687 196.422 541.687ZM257.716 541.687C251.684 541.687 246.488 540.204 242.127 537.24C237.799 534.241 234.46 529.982 232.109 524.462C229.792 518.942 228.633 512.315 228.633 504.58V502.791C228.633 494.954 229.792 488.224 232.109 482.602C234.426 476.98 237.748 472.67 242.076 469.671C246.437 466.639 251.633 465.122 257.664 465.122C263.525 465.122 268.466 466.57 272.487 469.467C276.542 472.329 279.523 476.503 281.431 481.989L271.004 486.129C269.812 482.721 268.125 480.2 265.944 478.564C263.798 476.895 261.089 476.06 257.818 476.06C252.196 476.06 247.868 478.343 244.836 482.909C241.837 487.475 240.338 494.017 240.338 502.536V504.836C240.338 513.218 241.837 519.658 244.836 524.156C247.834 528.619 252.144 530.851 257.767 530.851C262.469 530.851 266.047 529.25 268.5 526.047C270.987 522.844 272.231 518.227 272.231 512.196V509.64H256.233V499.571H283.22V510.56C283.22 520.407 280.988 528.057 276.524 533.509C272.061 538.961 265.791 541.687 257.716 541.687Z" fill="white"/>
<path d="M109 195V220.5M143 161V254.5M177 135.5V288.5M211 178V237.5M245 152.5V263M279 195V220.5" stroke="#36C381" stroke-width="21" stroke-linecap="round" stroke-linejoin="round"/>
</svg>
