<svg width="388" height="581" viewBox="0 0 388 581" fill="none" xmlns="http://www.w3.org/2000/svg">
<rect width="388" height="581" fill="#FBFBFB"/>
<rect y="417" width="388" height="164" fill="#FF2B19"/>
<path d="M109.616 540V466.809H132.922C137.795 466.809 142.02 467.763 145.598 469.671C149.176 471.579 151.936 474.271 153.878 477.747C155.854 481.222 156.842 485.294 156.842 489.962V491.291C156.842 495.993 155.854 500.082 153.878 503.558C151.936 506.999 149.176 509.691 145.598 511.633C142.02 513.541 137.795 514.496 132.922 514.496H116.209V503.864H132.667C136.619 503.864 139.686 502.774 141.867 500.593C144.081 498.413 145.189 495.397 145.189 491.547V489.707C145.189 485.822 144.081 482.807 141.867 480.66C139.686 478.479 136.619 477.389 132.667 477.389H121.116V540H109.616ZM170.04 540V466.809H190.025C196.226 466.809 201.525 468.24 205.92 471.102C210.35 473.93 213.757 478.002 216.142 483.318C218.527 488.633 219.72 494.988 219.72 502.382V504.427C219.72 511.787 218.527 518.141 216.142 523.491C213.757 528.807 210.35 532.896 205.92 535.758C201.525 538.586 196.226 540 190.025 540H170.04ZM181.54 529.164H189.769C195.766 529.164 200.281 527.103 203.313 522.98C206.38 518.857 207.913 512.758 207.913 504.682V502.127C207.913 494.051 206.38 487.952 203.313 483.829C200.281 479.706 195.766 477.644 189.769 477.644H181.54V529.164ZM233.327 540V466.809H276.873V477.644H244.878V540H233.327ZM240.227 509.589V498.804H273.807V509.589H240.227Z" fill="white"/>
<g clip-path="url(#clip0_1690_50)">
<path fill-rule="evenodd" clip-rule="evenodd" d="M164.15 125.575C163.67 125.47 162.2 125.32 159.275 126.22C156.65 127.03 155.675 127.87 155.405 128.17C155.255 128.32 155.105 128.47 155.06 129.1C154.865 131.155 155.84 135.7 160.37 143.29C162.27 146.45 164.54 149.775 167.18 153.265C167.63 148.875 167.84 144.815 167.81 141.085C167.735 131.98 166.1 127.615 164.9 126.1C164.57 125.695 164.405 125.65 164.15 125.575ZM186.56 175.63C188.96 163.015 190.4 151.075 190.31 140.89C190.22 130.75 188.63 119.815 182.51 112.09C179.132 107.782 174.359 104.785 169.01 103.615C163.64 102.415 158.09 103.06 152.69 104.71C147.47 106.3 142.655 108.85 138.965 112.795C135.155 116.875 133.16 121.795 132.665 126.955C131.75 136.48 135.965 146.305 141.065 154.825C146.255 163.525 153.635 172.915 162.155 182.41C159.977 191.893 157.511 201.307 154.76 210.64C152.053 219.908 149.067 229.092 145.805 238.18C132.995 243.055 121.34 248.275 112.175 253.855C103.28 259.285 94.6102 266.275 90.8752 275.425C88.7439 280.475 88.4052 286.101 89.9152 291.37C91.4302 296.71 94.6252 301.33 98.6752 305.32C102.485 309.085 107.165 311.92 112.7 312.76C118.235 313.6 123.38 312.22 127.7 309.88C135.755 305.515 142.37 297.04 147.755 288.16C153.23 279.115 158.45 267.91 163.22 255.76C172.55 252.475 182.57 249.265 192.92 246.13C202.282 243.267 211.737 240.72 221.27 238.495C230.84 246.325 240.08 253.075 248.495 257.83C256.895 262.555 266.435 266.455 275.555 265.66C280.49 265.21 285.29 263.41 289.31 259.81C293.105 256.277 295.864 251.775 297.29 246.79C298.955 241.525 299.6 236.005 298.34 230.65C297.081 225.353 293.969 220.682 289.565 217.48C281.84 211.72 270.98 210.325 260.945 210.355C251.045 210.385 239.495 211.84 227.375 214.195C220.111 207.874 212.975 201.408 205.97 194.8C199.335 188.584 192.863 182.182 186.56 175.63ZM180.62 201.64C178.212 210.776 175.571 219.849 172.7 228.85C177.25 227.4 181.8 225.985 186.35 224.605C191.05 223.175 195.8 221.805 200.6 220.495C197.228 217.414 193.878 214.309 190.55 211.18C187.2 208.031 183.885 204.846 180.605 201.625M251.675 233.32C254.405 235.17 257.02 236.805 259.52 238.225C267.065 242.47 271.55 243.415 273.575 243.235C274.175 243.19 274.265 243.07 274.295 243.04C274.415 242.935 275.12 242.23 275.825 240.01C276.68 237.31 276.485 236.095 276.425 235.855C276.425 235.855 276.5 235.81 276.095 235.51C274.55 234.355 270.095 232.825 260.99 232.855C258.09 232.855 254.975 233.01 251.675 233.32ZM133.19 268.015C130.017 269.563 126.914 271.249 123.89 273.07C115.835 277.99 112.58 281.8 111.71 283.915C111.44 284.59 111.47 284.905 111.56 285.265C111.725 285.79 112.31 287.17 114.47 289.315C114.923 289.788 115.45 290.183 116.03 290.485C116.36 290.409 116.674 290.277 116.96 290.095C119.54 288.7 123.59 284.62 128.51 276.505C130.09 273.895 131.64 271.065 133.19 268.015Z" fill="#FF2B19"/>
</g>
<defs>
<clipPath id="clip0_1690_50">
<rect width="210" height="210" fill="white" transform="translate(89 103)"/>
</clipPath>
</defs>
</svg>
