<svg width="388" height="581" viewBox="0 0 388 581" fill="none" xmlns="http://www.w3.org/2000/svg">
<rect width="388" height="581" fill="#FBFBFB"/>
<rect width="388" height="581" fill="#FBFBFB"/>
<rect y="417" width="388" height="164" fill="#2651FF"/>
<path d="M109.675 540V466.809H132.982C137.855 466.809 142.08 467.763 145.658 469.671C149.235 471.579 151.995 474.271 153.938 477.747C155.914 481.222 156.902 485.294 156.902 489.962V491.291C156.902 495.993 155.914 500.082 153.938 503.558C151.995 506.999 149.235 509.691 145.658 511.633C142.08 513.541 137.855 514.496 132.982 514.496H116.269V503.864H132.727C136.679 503.864 139.746 502.774 141.927 500.593C144.141 498.413 145.249 495.397 145.249 491.547V489.707C145.249 485.822 144.141 482.807 141.927 480.66C139.746 478.479 136.679 477.389 132.727 477.389H121.175V540H109.675ZM205.622 540V466.809H217.173V540H205.622ZM170.867 540V466.809H182.418V540H170.867ZM177.716 507.953V497.22H210.58V507.953H177.716ZM232.262 540V466.809H255.569C260.442 466.809 264.667 467.763 268.244 469.671C271.822 471.579 274.582 474.271 276.524 477.747C278.501 481.222 279.489 485.294 279.489 489.962V491.291C279.489 495.993 278.501 500.082 276.524 503.558C274.582 506.999 271.822 509.691 268.244 511.633C264.667 513.541 260.442 514.496 255.569 514.496H238.856V503.864H255.313C259.266 503.864 262.333 502.774 264.513 500.593C266.728 498.413 267.836 495.397 267.836 491.547V489.707C267.836 485.822 266.728 482.807 264.513 480.66C262.333 478.479 259.266 477.389 255.313 477.389H243.762V540H232.262Z" fill="white"/>
<path d="M193 149.042C133 149.042 86 174.499 86 207C86 239.501 133 264.958 193 264.958C253 264.958 300 239.501 300 207C300 174.499 253 149.042 193 149.042ZM181.89 166.875H193.571L189.861 184.708H200.294C206.91 184.708 211.351 185.636 213.883 187.945C216.353 190.228 217.102 193.973 216.112 199.073L211.475 220.375H199.598L203.869 200.678C204.381 197.961 204.182 196.104 203.272 195.105C202.371 194.115 200.383 193.625 197.405 193.625H188.051L182.407 220.375H170.708L181.89 166.875ZM130.583 184.708H154.355C165.688 184.708 172.554 192.305 169.87 203.638C166.749 216.808 158.403 220.375 143.031 220.375H135.684L133.356 233.75H121.542L130.583 184.708ZM224.208 184.708H247.98C259.313 184.708 266.179 192.305 263.495 203.638C260.374 216.808 252.019 220.375 236.656 220.375H229.309L226.981 233.75H215.167L224.208 184.708ZM140.704 193.625L137.342 211.458H144.966C151.564 211.458 157.699 210.709 158.724 200.874C159.108 197.058 157.521 193.625 149.897 193.625H140.704ZM234.329 193.625L230.967 211.458H238.591C245.189 211.458 251.324 210.709 252.349 200.874C252.733 197.058 251.155 193.625 243.522 193.625H234.329Z" fill="#2651FF"/>
</svg>
