<svg width="388" height="581" viewBox="0 0 388 581" fill="none" xmlns="http://www.w3.org/2000/svg">
<rect width="388" height="581" fill="#FBFBFB"/>
<rect y="417" width="388" height="164" fill="#49C336"/>
<path d="M109.675 540V466.809H132.982C137.855 466.809 142.08 467.763 145.658 469.671C149.235 471.579 151.995 474.271 153.938 477.747C155.914 481.222 156.902 485.294 156.902 489.962V491.291C156.902 495.993 155.914 500.082 153.938 503.558C151.995 506.999 149.235 509.691 145.658 511.633C142.08 513.541 137.855 514.496 132.982 514.496H116.269V503.864H132.727C136.679 503.864 139.746 502.774 141.927 500.593C144.141 498.413 145.249 495.397 145.249 491.547V489.707C145.249 485.822 144.141 482.807 141.927 480.66C139.746 478.479 136.679 477.389 132.727 477.389H121.175V540H109.675ZM168.209 540V466.809H179.913L209.047 519.351H209.353L208.331 502.484V466.809H219.831V540H209.456L178.942 485.158H178.636L179.709 502.076V540H168.209ZM257.716 541.687C251.684 541.687 246.488 540.204 242.127 537.24C237.799 534.241 234.46 529.982 232.109 524.462C229.792 518.942 228.633 512.315 228.633 504.58V502.791C228.633 494.954 229.792 488.224 232.109 482.602C234.426 476.98 237.748 472.67 242.076 469.671C246.437 466.639 251.633 465.122 257.664 465.122C263.525 465.122 268.466 466.57 272.487 469.467C276.542 472.329 279.523 476.503 281.431 481.989L271.004 486.129C269.812 482.721 268.125 480.2 265.944 478.564C263.798 476.895 261.089 476.06 257.818 476.06C252.196 476.06 247.868 478.343 244.836 482.909C241.837 487.475 240.338 494.017 240.338 502.536V504.836C240.338 513.218 241.837 519.658 244.836 524.156C247.834 528.619 252.144 530.851 257.767 530.851C262.469 530.851 266.047 529.25 268.5 526.047C270.987 522.844 272.231 518.227 272.231 512.196V509.64H256.233V499.571H283.22V510.56C283.22 520.407 280.988 528.057 276.524 533.509C272.061 538.961 265.791 541.687 257.716 541.687Z" fill="white"/>
<path d="M225.75 169.667H225.856M98.75 148.5C98.75 140.079 102.095 132.004 108.049 126.049C114.004 120.095 122.079 116.75 130.5 116.75H257.5C265.921 116.75 273.996 120.095 279.951 126.049C285.905 132.004 289.25 140.079 289.25 148.5V275.5C289.25 283.921 285.905 291.996 279.951 297.951C273.996 303.905 265.921 307.25 257.5 307.25H130.5C122.079 307.25 114.004 303.905 108.049 297.951C102.095 291.996 98.75 283.921 98.75 275.5V148.5Z" stroke="#49C336" stroke-width="20" stroke-linecap="round" stroke-linejoin="round"/>
<path d="M98.75 254.333L151.667 201.417C161.488 191.966 173.595 191.966 183.417 201.417L236.333 254.333" stroke="#49C336" stroke-width="20" stroke-linecap="round" stroke-linejoin="round"/>
<path d="M215.167 233.167L225.75 222.583C235.572 213.132 247.679 213.132 257.5 222.583L289.25 254.333" stroke="#49C336" stroke-width="20" stroke-linecap="round" stroke-linejoin="round"/>
</svg>
