<svg width="388" height="581" viewBox="0 0 388 581" fill="none" xmlns="http://www.w3.org/2000/svg">
<rect width="388" height="581" fill="#FBFBFB"/>
<rect width="388" height="581" fill="#FBFBFB"/>
<rect y="417" width="388" height="164" fill="#FF9A00"/>
<path d="M140.822 540V466.809H164.129C169.001 466.809 173.227 467.763 176.804 469.671C180.382 471.579 183.142 474.271 185.084 477.747C187.061 481.222 188.049 485.294 188.049 489.962V491.291C188.049 495.993 187.061 500.082 185.084 503.558C183.142 506.999 180.382 509.691 176.804 511.633C173.227 513.541 169.001 514.496 164.129 514.496H147.415V503.864H163.873C167.826 503.864 170.893 502.774 173.073 500.593C175.288 498.413 176.395 495.397 176.395 491.547V489.707C176.395 485.822 175.288 482.807 173.073 480.66C170.893 478.479 167.826 477.389 163.873 477.389H152.322V540H140.822ZM220.26 514.7L197.158 466.809H209.884L220.158 488.838L225.167 501.258H225.576L230.431 488.838L240.756 466.809H253.176L230.124 514.7H220.26ZM219.391 540V507.136H230.942V540H219.391Z" fill="white"/>
<path d="M261.425 163.875C268.694 163.875 275.666 166.763 280.806 171.903C285.946 177.043 288.834 184.014 288.834 191.283V227.508C288.834 231.108 288.125 234.672 286.747 237.997C285.37 241.322 283.351 244.344 280.806 246.889C278.261 249.434 275.239 251.453 271.914 252.83C268.589 254.208 265.025 254.917 261.425 254.917H193C193 258.654 196.067 264.117 199.804 264.117H240.917V280.217C240.917 287.486 238.029 294.457 232.889 299.597C227.749 304.737 220.778 307.625 213.509 307.625H172.492C165.223 307.625 158.251 304.737 153.111 299.597C147.971 294.457 145.084 287.486 145.084 280.217V244.279C145.084 240.684 145.793 237.125 147.172 233.805C148.55 230.485 150.571 227.47 153.117 224.932C155.664 222.395 158.686 220.385 162.011 219.018C165.335 217.651 168.897 216.954 172.492 216.967H222.804C226.399 216.967 229.959 216.257 233.279 214.879C236.599 213.5 239.614 211.48 242.151 208.933C244.689 206.387 246.699 203.365 248.066 200.04C249.432 196.715 250.13 193.153 250.117 189.558V163.875H261.425ZM220.409 276.863C216.575 276.863 213.509 279.738 213.509 285.392C213.509 291.046 216.575 292.196 220.409 292.196C221.302 292.196 222.187 292.02 223.013 291.678C223.838 291.336 224.588 290.835 225.22 290.203C225.852 289.571 226.353 288.821 226.695 287.996C227.037 287.17 227.213 286.285 227.213 285.392C227.213 279.738 224.146 276.863 220.409 276.863ZM124.575 259.708C117.306 259.708 110.335 256.821 105.195 251.681C100.055 246.541 97.167 239.569 97.167 232.3V196.075C97.167 192.476 97.8759 188.912 99.2533 185.586C100.631 182.261 102.65 179.239 105.195 176.694C110.335 171.554 117.306 168.667 124.575 168.667H193C193 164.929 189.934 159.467 186.196 159.467H145.084V143.367C145.084 136.098 147.971 129.126 153.111 123.986C158.251 118.846 165.223 115.958 172.492 115.958H213.509C217.108 115.958 220.672 116.667 223.997 118.045C227.323 119.422 230.344 121.441 232.889 123.986C235.434 126.531 237.453 129.553 238.831 132.878C240.208 136.203 240.917 139.767 240.917 143.367V179.304C240.917 182.899 240.207 186.458 238.829 189.778C237.45 193.098 235.43 196.114 232.883 198.651C230.337 201.188 227.315 203.198 223.99 204.565C220.665 205.932 217.103 206.629 213.509 206.617H163.196C159.601 206.617 156.042 207.326 152.722 208.705C149.402 210.083 146.387 212.104 143.849 214.65C141.312 217.197 139.302 220.219 137.935 223.544C136.568 226.868 135.871 230.43 135.884 234.025V259.708H124.575ZM165.592 146.721C169.425 146.721 172.492 143.846 172.492 138.192C172.492 132.538 169.425 131.388 165.592 131.388C161.854 131.388 158.788 132.538 158.788 138.192C158.788 143.846 161.854 146.721 165.592 146.721Z" fill="#FF9A00"/>
</svg>
