<svg width="388" height="581" viewBox="0 0 388 581" fill="none" xmlns="http://www.w3.org/2000/svg">
<rect width="388" height="581" fill="#FBFBFB"/>
<rect y="417" width="388" height="164" fill="#36C381"/>
<path d="M109.471 540V466.809H132.42C137.361 466.809 141.637 467.712 145.249 469.518C148.861 471.324 151.655 473.879 153.631 477.184C155.607 480.49 156.595 484.408 156.595 488.94V489.86C156.595 494.358 155.607 498.276 153.631 501.616C151.655 504.921 148.861 507.476 145.249 509.282C141.637 511.088 137.361 511.991 132.42 511.991H116.013V501.871H132.164C136.151 501.871 139.269 500.866 141.518 498.856C143.767 496.811 144.891 493.983 144.891 490.371V488.94C144.891 485.328 143.767 482.5 141.518 480.456C139.269 478.411 136.151 477.389 132.164 477.389H120.92V540H109.471ZM147.855 540L128.484 507.442H141.16L160.991 540H147.855ZM165.602 540L188.347 466.809H199.847L222.489 540H210.427L196.269 488.684L194.071 479.842H193.764L191.618 488.684L177.511 540H165.602ZM175.773 522.724L178.84 512.911H208.893L212.062 522.724H175.773ZM232.058 540V466.809H255.007C259.947 466.809 264.224 467.712 267.836 469.518C271.447 471.324 274.242 473.879 276.218 477.184C278.194 480.49 279.182 484.408 279.182 488.94V489.86C279.182 494.358 278.194 498.276 276.218 501.616C274.242 504.921 271.447 507.476 267.836 509.282C264.224 511.088 259.947 511.991 255.007 511.991H238.6V501.871H254.751C258.738 501.871 261.856 500.866 264.104 498.856C266.353 496.811 267.478 493.983 267.478 490.371V488.94C267.478 485.328 266.353 482.5 264.104 480.456C261.856 478.411 258.738 477.389 254.751 477.389H243.507V540H232.058ZM270.442 540L251.071 507.442H263.747L283.578 540H270.442Z" fill="white"/>
<path d="M128.5 307.357C125.176 305.438 122.417 302.677 120.5 299.352C118.584 296.026 117.577 292.255 117.583 288.417V135.583C117.583 129.793 119.883 124.239 123.978 120.145C128.072 116.05 133.626 113.75 139.416 113.75H215.833L270.416 168.333V288.417C270.416 294.207 268.116 299.761 264.022 303.855C259.927 307.95 254.374 310.25 248.583 310.25H237.666" stroke="#36C381" stroke-width="21" stroke-linecap="round" stroke-linejoin="round"/>
<path d="M183.083 135.583H172.167M204.917 157.417H194M183.083 179.25H172.167M204.917 201.083H194M183.083 222.917H172.167M204.917 244.75H194M183.083 266.583C188.874 266.583 194.427 268.884 198.522 272.978C202.616 277.073 204.917 282.626 204.917 288.417V310.25C204.917 313.145 203.767 315.922 201.719 317.969C199.672 320.016 196.895 321.167 194 321.167H172.167C169.271 321.167 166.495 320.016 164.447 317.969C162.4 315.922 161.25 313.145 161.25 310.25V288.417C161.25 282.626 163.55 277.073 167.645 272.978C171.739 268.884 177.293 266.583 183.083 266.583Z" stroke="#36C381" stroke-width="21" stroke-linecap="round" stroke-linejoin="round"/>
</svg>
