<svg width="388" height="581" viewBox="0 0 388 581" fill="none" xmlns="http://www.w3.org/2000/svg">
<rect width="388" height="581" fill="#FBFBFB"/>
<rect width="388" height="581" fill="#FBFBFB"/>
<rect y="417" width="388" height="164" fill="#FF2B19"/>
<path d="M140.618 540V466.809H163.567C168.507 466.809 172.784 467.712 176.395 469.518C180.007 471.324 182.801 473.879 184.778 477.184C186.754 480.49 187.742 484.408 187.742 488.94V489.86C187.742 494.358 186.754 498.276 184.778 501.616C182.801 504.921 180.007 507.476 176.395 509.282C172.784 511.088 168.507 511.991 163.567 511.991H147.16V501.871H163.311C167.298 501.871 170.415 500.866 172.664 498.856C174.913 496.811 176.038 493.983 176.038 490.371V488.94C176.038 485.328 174.913 482.5 172.664 480.456C170.415 478.411 167.298 477.389 163.311 477.389H152.067V540H140.618ZM179.002 540L159.631 507.442H172.307L192.138 540H179.002ZM202.576 540V466.809H226.7C233.106 466.809 238.149 468.41 241.829 471.613C245.509 474.816 247.349 479.093 247.349 484.442V485.72C247.349 489.536 246.429 492.807 244.589 495.533C242.749 498.259 240.108 500.27 236.667 501.564V501.973C240.926 502.927 244.248 504.955 246.633 508.056C249.053 511.122 250.262 514.887 250.262 519.351V520.731C250.262 524.616 249.342 528.006 247.502 530.902C245.696 533.799 243.141 536.047 239.836 537.649C236.564 539.216 232.697 540 228.233 540H202.576ZM213.922 530.187H226.904C230.653 530.187 233.549 529.233 235.593 527.324C237.638 525.416 238.66 522.69 238.66 519.147V518.022C238.66 514.479 237.604 511.753 235.491 509.844C233.413 507.902 230.397 506.931 226.444 506.931H210.753V497.527H225.064C228.506 497.527 231.147 496.658 232.987 494.92C234.827 493.182 235.747 490.712 235.747 487.509V486.589C235.747 483.352 234.827 480.881 232.987 479.178C231.181 477.474 228.54 476.622 225.064 476.622H213.922V530.187Z" fill="white"/>
<path fill-rule="evenodd" clip-rule="evenodd" d="M192.479 111.692C192.304 111.704 192.129 111.721 191.955 111.743H190.924L190.112 112.149C189.363 112.4 188.652 112.753 187.999 113.197L153.219 130.595L116.597 167.217L99.2831 201.826C98.7769 202.546 98.3834 203.338 98.1162 204.177L97.7442 204.921V205.867C97.6686 206.525 97.6686 207.188 97.7442 207.846V278.908L99.3843 281.174C100.808 283.147 102.414 285.116 104.288 286.99C113.308 296.01 125.176 300.612 138.273 301.767C139.162 302.056 140.093 302.199 141.029 302.19H278.22C278.968 302.317 279.73 302.346 280.485 302.274C280.689 302.253 280.892 302.225 281.094 302.19H288.195V295.054C288.352 294.114 288.352 293.154 288.195 292.214V155.026C288.204 154.091 288.062 153.16 287.773 152.27C286.617 139.175 282.014 127.308 272.995 118.286H272.978V118.269C271.108 116.409 269.149 114.817 267.196 113.4L264.913 111.743H193.748C193.327 111.695 192.903 111.678 192.48 111.692M224.216 129.056H258.995C259.583 129.552 260.246 130.022 260.771 130.544C267.105 136.89 270.532 145.971 270.848 157.038L224.216 129.056ZM192.598 130.274L208.255 139.657L202.185 176.854L186.849 192.189L162.857 216.181L125.659 222.25L116.276 206.594L130.833 177.462L163.465 144.831L192.598 130.274ZM224.233 149.244L253.585 166.862L220.682 170.97L224.233 149.244ZM266.841 182.653C261.787 198.915 251.91 216.626 237.675 233.139L221.984 188.249L266.841 182.653ZM206.665 196.855L219.448 233.443L182.859 220.661L199.091 204.43L206.665 196.855ZM270.882 216.164V272.635L246.956 248.711C256.512 238.289 264.524 227.307 270.881 216.164M156.972 234.678L152.864 267.58L135.246 238.229L156.972 234.678ZM174.253 235.98L219.126 251.67C202.617 265.898 184.915 275.783 168.656 280.836L174.253 235.98ZM115.058 238.212L143.04 284.843C131.96 284.527 122.873 281.093 116.529 274.749C116.014 274.234 115.549 273.572 115.058 272.991V238.212ZM234.715 260.952L258.64 284.877H202.167C213.311 278.519 224.294 270.506 234.715 260.952Z" fill="#FF2B19"/>
</svg>
