<svg width="388" height="581" viewBox="0 0 388 581" fill="none" xmlns="http://www.w3.org/2000/svg">
<rect width="388" height="581" fill="#FBFBFB"/>
<rect width="388" height="581" fill="#FBFBFB"/>
<rect y="417" width="388" height="164" fill="#FF7C3F"/>
<path d="M140.618 540V466.809H163.567C168.507 466.809 172.784 467.712 176.395 469.518C180.007 471.324 182.801 473.879 184.778 477.184C186.754 480.49 187.742 484.408 187.742 488.94V489.86C187.742 494.358 186.754 498.276 184.778 501.616C182.801 504.921 180.007 507.476 176.395 509.282C172.784 511.088 168.507 511.991 163.567 511.991H147.16V501.871H163.311C167.298 501.871 170.415 500.866 172.664 498.856C174.913 496.811 176.038 493.983 176.038 490.371V488.94C176.038 485.328 174.913 482.5 172.664 480.456C170.415 478.411 167.298 477.389 163.311 477.389H152.067V540H140.618ZM179.002 540L159.631 507.442H172.307L192.138 540H179.002ZM227.313 541.687C222.611 541.687 218.318 540.869 214.433 539.233C210.583 537.564 207.295 535.196 204.569 532.129C201.843 529.028 199.816 525.314 198.487 520.987L209.22 517.562C210.617 521.924 212.849 525.246 215.916 527.529C218.982 529.812 222.747 530.953 227.211 530.953C231.164 530.953 234.247 530.084 236.462 528.347C238.677 526.609 239.784 524.207 239.784 521.14V520.476C239.784 517.886 238.899 515.722 237.127 513.984C235.355 512.247 232.373 510.628 228.182 509.129L218.164 505.449C207.84 501.701 202.678 495.193 202.678 485.924V485.618C202.678 481.529 203.666 477.951 205.642 474.884C207.619 471.818 210.379 469.433 213.922 467.729C217.466 465.991 221.572 465.122 226.24 465.122C232.544 465.122 237.791 466.553 241.982 469.416C246.207 472.244 249.257 476.435 251.131 481.989L240.5 485.567C238.285 479.093 233.549 475.856 226.291 475.856C222.645 475.856 219.715 476.69 217.5 478.36C215.319 480.03 214.229 482.261 214.229 485.056V485.567C214.229 487.781 214.944 489.656 216.376 491.189C217.841 492.688 220.226 494.034 223.531 495.227L233.6 498.907C239.733 501.156 244.214 504.035 247.042 507.544C249.904 511.02 251.336 515.381 251.336 520.629V521.038C251.336 525.161 250.33 528.773 248.32 531.873C246.31 534.974 243.499 537.393 239.887 539.131C236.309 540.835 232.118 541.687 227.313 541.687Z" fill="white"/>
<g clip-path="url(#clip0_1694_707)">
<path d="M113.6 251.4H187.6M121 162.6H217.2C223.088 162.6 228.735 164.939 232.898 169.102C237.061 173.266 239.4 178.912 239.4 184.8C239.4 190.688 237.061 196.334 232.898 200.498C228.735 204.661 223.088 207 217.2 207H150.6M150.6 162.6V251.4M195 207H209.8C217.651 207 225.18 210.119 230.731 215.67C236.282 221.221 239.4 228.75 239.4 236.6C239.4 240.525 240.96 244.29 243.735 247.065C246.511 249.841 250.275 251.4 254.2 251.4H276.4M195 103.4L214.891 119.828L239.948 113.656L250.752 137.1L276.001 142.413L275.557 168.209L296.01 183.942L284.392 207L295.995 230.058L275.542 245.791L275.986 271.587L250.722 276.9L239.933 300.344L214.877 294.157L195 310.6L175.109 294.172L150.053 300.344L139.249 276.9L114 271.587L114.444 245.791L93.9902 230.058L105.608 207L93.9902 183.942L114.444 168.224L114 142.428L139.249 137.114L150.053 113.671L175.109 119.843L195 103.4Z" stroke="#FF7C3F" stroke-width="20" stroke-linejoin="round"/>
</g>
<defs>
<clipPath id="clip0_1694_707">
<rect width="222" height="222" fill="white" transform="translate(84 96)"/>
</clipPath>
</defs>
</svg>
