<svg width="388" height="581" viewBox="0 0 388 581" fill="none" xmlns="http://www.w3.org/2000/svg">
<rect width="388" height="581" fill="#FBFBFB"/>
<rect y="417" width="388" height="164" fill="#242023"/>
<path d="M109.471 540V466.809H132.42C137.361 466.809 141.637 467.712 145.249 469.518C148.861 471.324 151.655 473.879 153.631 477.184C155.607 480.49 156.595 484.408 156.595 488.94V489.86C156.595 494.358 155.607 498.276 153.631 501.616C151.655 504.921 148.861 507.476 145.249 509.282C141.637 511.088 137.361 511.991 132.42 511.991H116.013V501.871H132.164C136.151 501.871 139.269 500.866 141.518 498.856C143.767 496.811 144.891 493.983 144.891 490.371V488.94C144.891 485.328 143.767 482.5 141.518 480.456C139.269 478.411 136.151 477.389 132.164 477.389H120.92V540H109.471ZM147.855 540L128.484 507.442H141.16L160.991 540H147.855ZM188.193 540V472.124H199.847V540H188.193ZM168.362 477.747V466.809H219.678V477.747H168.362ZM233.387 540V466.809H276.933V477.644H244.938V540H233.387ZM240.287 509.589V498.804H273.867V509.589H240.287Z" fill="white"/>
<g clip-path="url(#clip0_1694_299)">
<path d="M90.875 137C90.875 134.514 91.8627 132.129 93.6209 130.371C95.379 128.613 97.7636 127.625 100.25 127.625H287.75C290.236 127.625 292.621 128.613 294.379 130.371C296.137 132.129 297.125 134.514 297.125 137C297.125 139.486 296.137 141.871 294.379 143.629C292.621 145.387 290.236 146.375 287.75 146.375H100.25C97.7636 146.375 95.379 145.387 93.6209 143.629C91.8627 141.871 90.875 139.486 90.875 137ZM90.875 187C90.875 184.514 91.8627 182.129 93.6209 180.371C95.379 178.613 97.7636 177.625 100.25 177.625H225.25C227.736 177.625 230.121 178.613 231.879 180.371C233.637 182.129 234.625 184.514 234.625 187C234.625 189.486 233.637 191.871 231.879 193.629C230.121 195.387 227.736 196.375 225.25 196.375H100.25C97.7636 196.375 95.379 195.387 93.6209 193.629C91.8627 191.871 90.875 189.486 90.875 187ZM90.875 237C90.875 234.514 91.8627 232.129 93.6209 230.371C95.379 228.613 97.7636 227.625 100.25 227.625H287.75C290.236 227.625 292.621 228.613 294.379 230.371C296.137 232.129 297.125 234.514 297.125 237C297.125 239.486 296.137 241.871 294.379 243.629C292.621 245.387 290.236 246.375 287.75 246.375H100.25C97.7636 246.375 95.379 245.387 93.6209 243.629C91.8627 241.871 90.875 239.486 90.875 237ZM90.875 287C90.875 284.514 91.8627 282.129 93.6209 280.371C95.379 278.613 97.7636 277.625 100.25 277.625H225.25C227.736 277.625 230.121 278.613 231.879 280.371C233.637 282.129 234.625 284.514 234.625 287C234.625 289.486 233.637 291.871 231.879 293.629C230.121 295.387 227.736 296.375 225.25 296.375H100.25C97.7636 296.375 95.379 295.387 93.6209 293.629C91.8627 291.871 90.875 289.486 90.875 287Z" fill="#242023"/>
</g>
<defs>
<clipPath id="clip0_1694_299">
<rect width="254" height="254" fill="white" transform="translate(67 85)"/>
</clipPath>
</defs>
</svg>
