<svg width="388" height="581" viewBox="0 0 388 581" fill="none" xmlns="http://www.w3.org/2000/svg">
<rect width="388" height="581" fill="#FBFBFB"/>
<rect width="388" height="581" fill="#FBFBFB"/>
<rect y="417" width="388" height="164" fill="#2651FF"/>
<path d="M104.227 541.687C99.5243 541.687 95.231 540.869 91.3465 539.233C87.4962 537.564 84.208 535.196 81.4821 532.129C78.7562 529.028 76.7287 525.314 75.3999 520.987L86.1332 517.562C87.5302 521.924 89.7621 525.246 92.8287 527.529C95.8954 529.812 99.6606 530.953 104.124 530.953C108.077 530.953 111.161 530.084 113.375 528.347C115.59 526.609 116.698 524.207 116.698 521.14V520.476C116.698 517.886 115.812 515.722 114.04 513.984C112.268 512.247 109.287 510.628 105.095 509.129L95.0776 505.449C84.7532 501.701 79.591 495.193 79.591 485.924V485.618C79.591 481.529 80.5791 477.951 82.5554 474.884C84.5317 471.818 87.2917 469.433 90.8354 467.729C94.3791 465.991 98.485 465.122 103.153 465.122C109.457 465.122 114.704 466.553 118.895 469.416C123.121 472.244 126.17 476.435 128.044 481.989L117.413 485.567C115.198 479.093 110.462 475.856 103.204 475.856C99.5584 475.856 96.628 476.69 94.4132 478.36C92.2325 480.03 91.1421 482.261 91.1421 485.056V485.567C91.1421 487.781 91.8576 489.656 93.2887 491.189C94.7539 492.688 97.1391 494.034 100.444 495.227L110.513 498.907C116.647 501.156 121.127 504.035 123.955 507.544C126.818 511.02 128.249 515.381 128.249 520.629V521.038C128.249 525.161 127.244 528.773 125.233 531.873C123.223 534.974 120.412 537.393 116.8 539.131C113.222 540.835 109.031 541.687 104.227 541.687ZM134.955 540L157.7 466.809H169.2L191.842 540H179.78L165.622 488.684L163.424 479.842H163.118L160.971 488.684L146.864 540H134.955ZM145.127 522.724L148.193 512.911H178.247L181.415 522.724H145.127ZM226.813 541.687C222.111 541.687 217.818 540.869 213.933 539.233C210.083 537.564 206.795 535.196 204.069 532.129C201.343 529.028 199.316 525.314 197.987 520.987L208.72 517.562C210.117 521.924 212.349 525.246 215.416 527.529C218.482 529.812 222.247 530.953 226.711 530.953C230.664 530.953 233.747 530.084 235.962 528.347C238.177 526.609 239.284 524.207 239.284 521.14V520.476C239.284 517.886 238.399 515.722 236.627 513.984C234.855 512.247 231.873 510.628 227.682 509.129L217.664 505.449C207.34 501.701 202.178 495.193 202.178 485.924V485.618C202.178 481.529 203.166 477.951 205.142 474.884C207.119 471.818 209.879 469.433 213.422 467.729C216.966 465.991 221.072 465.122 225.74 465.122C232.044 465.122 237.291 466.553 241.482 469.416C245.707 472.244 248.757 476.435 250.631 481.989L240 485.567C237.785 479.093 233.049 475.856 225.791 475.856C222.145 475.856 219.215 476.69 217 478.36C214.819 480.03 213.729 482.261 213.729 485.056V485.567C213.729 487.781 214.444 489.656 215.876 491.189C217.341 492.688 219.726 494.034 223.031 495.227L233.1 498.907C239.233 501.156 243.714 504.035 246.542 507.544C249.404 511.02 250.836 515.381 250.836 520.629V521.038C250.836 525.161 249.83 528.773 247.82 531.873C245.81 534.974 242.999 537.393 239.387 539.131C235.809 540.835 231.618 541.687 226.813 541.687ZM288.107 541.687C283.405 541.687 279.111 540.869 275.227 539.233C271.376 537.564 268.088 535.196 265.362 532.129C262.636 529.028 260.609 525.314 259.28 520.987L270.013 517.562C271.41 521.924 273.642 525.246 276.709 527.529C279.776 529.812 283.541 530.953 288.005 530.953C291.957 530.953 295.041 530.084 297.256 528.347C299.47 526.609 300.578 524.207 300.578 521.14V520.476C300.578 517.886 299.692 515.722 297.92 513.984C296.148 512.247 293.167 510.628 288.976 509.129L278.958 505.449C268.633 501.701 263.471 495.193 263.471 485.924V485.618C263.471 481.529 264.459 477.951 266.436 474.884C268.412 471.818 271.172 469.433 274.716 467.729C278.259 465.991 282.365 465.122 287.033 465.122C293.337 465.122 298.585 466.553 302.776 469.416C307.001 472.244 310.05 476.435 311.925 481.989L301.293 485.567C299.079 479.093 294.342 475.856 287.085 475.856C283.439 475.856 280.508 476.69 278.293 478.36C276.113 480.03 275.022 482.261 275.022 485.056V485.567C275.022 487.781 275.738 489.656 277.169 491.189C278.634 492.688 281.019 494.034 284.325 495.227L294.393 498.907C300.527 501.156 305.007 504.035 307.836 507.544C310.698 511.02 312.129 515.381 312.129 520.629V521.038C312.129 525.161 311.124 528.773 309.113 531.873C307.103 534.974 304.292 537.393 300.68 539.131C297.102 540.835 292.911 541.687 288.107 541.687Z" fill="white"/>
<path d="M154.333 120C149.206 120 144.288 122.037 140.663 125.663C137.037 129.288 135 134.206 135 139.333V178C135 183.128 132.963 188.045 129.337 191.671C125.712 195.296 120.794 197.333 115.667 197.333H106V216.667H115.667C120.794 216.667 125.712 218.704 129.337 222.329C132.963 225.955 135 230.872 135 236V274.667C135 279.794 137.037 284.712 140.663 288.337C144.288 291.963 149.206 294 154.333 294H173.667V274.667H154.333V226.333C154.333 221.206 152.296 216.288 148.671 212.663C145.045 209.037 140.128 207 135 207C140.128 207 145.045 204.963 148.671 201.337C152.296 197.712 154.333 192.794 154.333 187.667V139.333H173.667V120M231.667 120C236.794 120 241.712 122.037 245.337 125.663C248.963 129.288 251 134.206 251 139.333V178C251 183.128 253.037 188.045 256.663 191.671C260.288 195.296 265.206 197.333 270.333 197.333H280V216.667H270.333C265.206 216.667 260.288 218.704 256.663 222.329C253.037 225.955 251 230.872 251 236V274.667C251 279.794 248.963 284.712 245.337 288.337C241.712 291.963 236.794 294 231.667 294H212.333V274.667H231.667V226.333C231.667 221.206 233.704 216.288 237.329 212.663C240.955 209.037 245.872 207 251 207C245.872 207 240.955 204.963 237.329 201.337C233.704 197.712 231.667 192.794 231.667 187.667V139.333H212.333V120H231.667Z" fill="#2651FF"/>
</svg>
