<svg width="388" height="581" viewBox="0 0 388 581" fill="none" xmlns="http://www.w3.org/2000/svg">
<rect width="388" height="581" fill="#FBFBFB"/>
<rect width="388" height="581" fill="#FBFBFB"/>
<rect y="417" width="388" height="164" fill="#00BFFF"/>
<path d="M134.873 541.687C130.171 541.687 125.878 540.869 121.993 539.233C118.143 537.564 114.855 535.196 112.129 532.129C109.403 529.028 107.375 525.314 106.047 520.987L116.78 517.562C118.177 521.924 120.409 525.246 123.475 527.529C126.542 529.812 130.307 530.953 134.771 530.953C138.724 530.953 141.807 530.084 144.022 528.347C146.237 526.609 147.344 524.207 147.344 521.14V520.476C147.344 517.886 146.458 515.722 144.687 513.984C142.915 512.247 139.933 510.628 135.742 509.129L125.724 505.449C115.4 501.701 110.238 495.193 110.238 485.924V485.618C110.238 481.529 111.226 477.951 113.202 474.884C115.178 471.818 117.938 469.433 121.482 467.729C125.026 465.991 129.132 465.122 133.8 465.122C140.104 465.122 145.351 466.553 149.542 469.416C153.767 472.244 156.817 476.435 158.691 481.989L148.06 485.567C145.845 479.093 141.109 475.856 133.851 475.856C130.205 475.856 127.275 476.69 125.06 478.36C122.879 480.03 121.789 482.261 121.789 485.056V485.567C121.789 487.781 122.504 489.656 123.935 491.189C125.401 492.688 127.786 494.034 131.091 495.227L141.16 498.907C147.293 501.156 151.774 504.035 154.602 507.544C157.464 511.02 158.895 515.381 158.895 520.629V521.038C158.895 525.161 157.89 528.773 155.88 531.873C153.87 534.974 151.058 537.393 147.447 539.131C143.869 540.835 139.678 541.687 134.873 541.687ZM193.918 540.256C188.432 540.256 183.661 538.807 179.607 535.911C175.586 533.015 172.451 528.892 170.202 523.542C167.987 518.159 166.88 511.787 166.88 504.427V502.382C166.88 494.647 167.97 488.003 170.151 482.449C172.332 476.895 175.45 472.619 179.504 469.62C183.559 466.621 188.398 465.122 194.02 465.122C199.642 465.122 204.481 466.621 208.536 469.62C212.59 472.619 215.708 476.895 217.889 482.449C220.07 488.003 221.16 494.647 221.16 502.382V504.427C221.16 511.787 220.07 518.159 217.889 523.542C215.742 528.892 212.624 533.015 208.536 535.911C204.481 538.807 199.608 540.256 193.918 540.256ZM216.662 560.036C213.289 560.036 210.29 559.235 207.667 557.633C205.043 556.032 202.402 553.357 199.744 549.609C198.245 547.428 196.967 545.759 195.911 544.6C194.855 543.476 193.867 542.692 192.947 542.249C192.027 541.84 190.987 541.636 189.829 541.636C187.682 541.636 185.944 542.607 184.616 544.549C183.321 546.491 182.384 549.507 181.804 553.596L170.151 551.602C171.105 545.469 173.269 540.784 176.642 537.547C180.05 534.276 184.36 532.64 189.573 532.64C192.981 532.64 195.962 533.356 198.518 534.787C201.107 536.184 203.561 538.347 205.878 541.278C208.195 544.242 210.12 546.253 211.653 547.309C213.221 548.365 215.027 548.893 217.071 548.893C218.638 548.893 220.206 548.553 221.773 547.871L224.278 558.451C221.893 559.507 219.354 560.036 216.662 560.036ZM194.02 531.362C198.893 531.362 202.658 529.096 205.316 524.564C207.973 519.999 209.302 513.422 209.302 504.836V502.28C209.302 493.864 207.973 487.39 205.316 482.858C202.692 478.326 198.927 476.06 194.02 476.06C189.113 476.06 185.331 478.326 182.673 482.858C180.05 487.39 178.738 493.864 178.738 502.28V504.836C178.738 513.422 180.067 519.999 182.724 524.564C185.382 529.096 189.147 531.362 194.02 531.362ZM234.153 540V466.809H245.756V529.062H279.847V540H234.153Z" fill="white"/>
<path d="M109 144C109 152.354 117.85 160.366 133.603 166.274C149.356 172.181 170.722 175.5 193 175.5C215.278 175.5 236.644 172.181 252.397 166.274C268.15 160.366 277 152.354 277 144C277 135.646 268.15 127.634 252.397 121.726C236.644 115.819 215.278 112.5 193 112.5C170.722 112.5 149.356 115.819 133.603 121.726C117.85 127.634 109 135.646 109 144Z" stroke="#00BFFF" stroke-width="22" stroke-linecap="round" stroke-linejoin="round"/>
<path d="M109 144V207C109 215.354 117.85 223.366 133.603 229.274C149.356 235.181 170.722 238.5 193 238.5C215.278 238.5 236.644 235.181 252.397 229.274C268.15 223.366 277 215.354 277 207V144" stroke="#00BFFF" stroke-width="22" stroke-linecap="round" stroke-linejoin="round"/>
<path d="M109 207V270C109 278.354 117.85 286.366 133.603 292.274C149.356 298.181 170.722 301.5 193 301.5C215.278 301.5 236.644 298.181 252.397 292.274C268.15 286.366 277 278.354 277 270V207" stroke="#00BFFF" stroke-width="22" stroke-linecap="round" stroke-linejoin="round"/>
</svg>
