<svg width="388" height="581" viewBox="0 0 388 581" fill="none" xmlns="http://www.w3.org/2000/svg">
<rect width="388" height="581" fill="#FBFBFB"/>
<rect width="388" height="581" fill="#FBFBFB"/>
<rect y="417" width="388" height="164" fill="#18DAE5"/>
<path d="M42.9331 540.687C38.2309 540.687 33.9376 539.869 30.0531 538.233C26.2027 536.564 22.9146 534.196 20.1887 531.129C17.4627 528.028 15.4353 524.314 14.1064 519.987L24.8398 516.562C26.2368 520.924 28.4687 524.246 31.5353 526.529C34.602 528.812 38.3672 529.953 42.8309 529.953C46.7835 529.953 49.8672 529.084 52.082 527.347C54.2968 525.609 55.4042 523.207 55.4042 520.14V519.476C55.4042 516.886 54.5183 514.722 52.7465 512.984C50.9746 511.247 47.9931 509.628 43.802 508.129L33.7842 504.449C23.4598 500.701 18.2976 494.193 18.2976 484.924V484.618C18.2976 480.529 19.2857 476.951 21.262 473.884C23.2383 470.818 25.9983 468.433 29.542 466.729C33.0857 464.991 37.1916 464.122 41.8598 464.122C48.1635 464.122 53.4109 465.553 57.602 468.416C61.8272 471.244 64.8768 475.435 66.7509 480.989L56.1198 484.567C53.905 478.093 49.1687 474.856 41.9109 474.856C38.265 474.856 35.3346 475.69 33.1198 477.36C30.939 479.03 29.8487 481.261 29.8487 484.056V484.567C29.8487 486.781 30.5642 488.656 31.9953 490.189C33.4605 491.688 35.8457 493.034 39.1509 494.227L49.2198 497.907C55.3531 500.156 59.8339 503.035 62.662 506.544C65.5242 510.02 66.9553 514.381 66.9553 519.629V520.038C66.9553 524.161 65.9502 527.773 63.9398 530.873C61.9294 533.974 59.1183 536.393 55.5065 538.131C51.9287 539.835 47.7376 540.687 42.9331 540.687ZM101.978 539.256C96.4917 539.256 91.7213 537.807 87.6665 534.911C83.6458 532.015 80.511 527.892 78.2621 522.542C76.0473 517.159 74.9399 510.787 74.9399 503.427V501.382C74.9399 493.647 76.0302 487.003 78.211 481.449C80.3917 475.895 83.5095 471.619 87.5643 468.62C91.6191 465.621 96.4576 464.122 102.08 464.122C107.702 464.122 112.541 465.621 116.595 468.62C120.65 471.619 123.768 475.895 125.949 481.449C128.129 487.003 129.22 493.647 129.22 501.382V503.427C129.22 510.787 128.129 517.159 125.949 522.542C123.802 527.892 120.684 532.015 116.595 534.911C112.541 537.807 107.668 539.256 101.978 539.256ZM124.722 559.036C121.349 559.036 118.35 558.235 115.727 556.633C113.103 555.032 110.462 552.357 107.804 548.609C106.305 546.428 105.027 544.759 103.971 543.6C102.915 542.476 101.927 541.692 101.007 541.249C100.087 540.84 99.0473 540.636 97.8887 540.636C95.7421 540.636 94.0043 541.607 92.6754 543.549C91.3806 545.491 90.4436 548.507 89.8643 552.596L78.211 550.602C79.165 544.469 81.3287 539.784 84.7021 536.547C88.1095 533.276 92.4199 531.64 97.6332 531.64C101.041 531.64 104.022 532.356 106.578 533.787C109.167 535.184 111.621 537.347 113.938 540.278C116.255 543.242 118.18 545.253 119.713 546.309C121.281 547.365 123.087 547.893 125.131 547.893C126.698 547.893 128.266 547.553 129.833 546.871L132.338 557.451C129.952 558.507 127.414 559.036 124.722 559.036ZM102.08 530.362C106.952 530.362 110.718 528.096 113.375 523.564C116.033 518.999 117.362 512.422 117.362 503.836V501.28C117.362 492.864 116.033 486.39 113.375 481.858C110.752 477.326 106.987 475.06 102.08 475.06C97.1732 475.06 93.391 477.326 90.7332 481.858C88.1095 486.39 86.7976 492.864 86.7976 501.28V503.836C86.7976 512.422 88.1265 518.999 90.7843 523.564C93.4421 528.096 97.2073 530.362 102.08 530.362ZM142.213 539V465.809H153.815V528.062H187.907V539H142.213ZM218.84 533.531V471.278H230.493V533.531H218.84ZM202.484 539V528.062H246.849V539H202.484ZM202.484 476.696V465.809H246.849V476.696H202.484ZM280.133 539V471.124H291.787V539H280.133ZM260.302 476.747V465.809H311.618V476.747H260.302ZM325.327 539V465.809H368.056V476.593H336.878V528.216H368.873V539H325.327ZM332.227 506.902V496.169H363.967V506.902H332.227Z" fill="white"/>
<path d="M109 144C109 152.354 117.85 160.366 133.603 166.274C149.356 172.181 170.722 175.5 193 175.5C215.278 175.5 236.644 172.181 252.397 166.274C268.15 160.366 277 152.354 277 144C277 135.646 268.15 127.634 252.397 121.726C236.644 115.819 215.278 112.5 193 112.5C170.722 112.5 149.356 115.819 133.603 121.726C117.85 127.634 109 135.646 109 144Z" stroke="#18DAE5" stroke-width="22" stroke-linecap="round" stroke-linejoin="round"/>
<path d="M109 144V207C109 215.354 117.85 223.366 133.603 229.274C149.356 235.181 170.722 238.5 193 238.5C215.278 238.5 236.644 235.181 252.397 229.274C268.15 223.366 277 215.354 277 207V144" stroke="#18DAE5" stroke-width="22" stroke-linecap="round" stroke-linejoin="round"/>
<path d="M109 207V270C109 278.354 117.85 286.366 133.603 292.274C149.356 298.181 170.722 301.5 193 301.5C215.278 301.5 236.644 298.181 252.397 292.274C268.15 286.366 277 278.354 277 270V207" stroke="#18DAE5" stroke-width="22" stroke-linecap="round" stroke-linejoin="round"/>
</svg>
