<svg width="388" height="581" viewBox="0 0 388 581" fill="none" xmlns="http://www.w3.org/2000/svg">
<rect width="388" height="581" fill="#FBFBFB"/>
<rect width="388" height="581" fill="#FBFBFB"/>
<rect y="417" width="388" height="164" fill="#FF5722"/>
<path d="M42.9331 541.687C38.2309 541.687 33.9376 540.869 30.0531 539.233C26.2027 537.564 22.9146 535.196 20.1887 532.129C17.4627 529.028 15.4353 525.314 14.1064 520.987L24.8398 517.562C26.2368 521.924 28.4687 525.246 31.5353 527.529C34.602 529.812 38.3672 530.953 42.8309 530.953C46.7835 530.953 49.8672 530.084 52.082 528.347C54.2968 526.609 55.4042 524.207 55.4042 521.14V520.476C55.4042 517.886 54.5183 515.722 52.7465 513.984C50.9746 512.247 47.9931 510.628 43.802 509.129L33.7842 505.449C23.4598 501.701 18.2976 495.193 18.2976 485.924V485.618C18.2976 481.529 19.2857 477.951 21.262 474.884C23.2383 471.818 25.9983 469.433 29.542 467.729C33.0857 465.991 37.1916 465.122 41.8598 465.122C48.1635 465.122 53.4109 466.553 57.602 469.416C61.8272 472.244 64.8768 476.435 66.7509 481.989L56.1198 485.567C53.905 479.093 49.1687 475.856 41.9109 475.856C38.265 475.856 35.3346 476.69 33.1198 478.36C30.939 480.03 29.8487 482.261 29.8487 485.056V485.567C29.8487 487.781 30.5642 489.656 31.9953 491.189C33.4605 492.688 35.8457 494.034 39.1509 495.227L49.2198 498.907C55.3531 501.156 59.8339 504.035 62.662 507.544C65.5242 511.02 66.9553 515.381 66.9553 520.629V521.038C66.9553 525.161 65.9502 528.773 63.9398 531.873C61.9294 534.974 59.1183 537.393 55.5065 539.131C51.9287 540.835 47.7376 541.687 42.9331 541.687ZM96.6621 540L73.7132 466.809H85.7754L100.035 516.847L102.029 526.916H102.335L104.431 516.847L118.538 466.809H130.447L107.498 540H96.6621ZM141.447 540V466.809H184.175V477.593H152.998V529.216H184.993V540H141.447ZM148.347 507.902V497.169H180.087V507.902H148.347ZM203.507 540V466.809H215.109V529.062H249.2V540H203.507ZM280.133 540V472.124H291.787V540H280.133ZM260.302 477.747V466.809H311.618V477.747H260.302ZM325.327 540V466.809H368.056V477.593H336.878V529.216H368.873V540H325.327ZM332.227 507.902V497.169H363.967V507.902H332.227Z" fill="white"/>
<path d="M183.404 111.753C211.144 94.083 249.496 102.329 268.914 130.126C273.523 136.576 276.797 143.882 278.546 151.614C280.295 159.347 280.482 167.35 279.098 175.156C277.751 182.61 274.907 189.713 270.738 196.037C276.818 207.637 278.86 220.927 276.533 233.819C275.162 241.47 272.208 248.752 267.862 255.197C263.516 261.642 257.872 267.109 251.291 271.249L202.585 302.295C174.845 319.965 136.493 311.728 117.066 283.931C112.459 277.478 109.187 270.17 107.442 262.436C105.696 254.702 105.512 246.698 106.901 238.892C108.248 231.438 111.092 224.334 115.261 218.011C109.18 206.412 107.137 193.118 109.456 180.229C110.829 172.576 113.784 165.294 118.132 158.849C122.48 152.404 128.125 146.937 134.707 142.799L183.404 111.753ZM155.465 285.375C162.894 288.13 170.978 288.529 178.645 286.544C182.15 285.603 185.485 284.14 188.544 282.193L237.26 251.156C241.217 248.665 244.61 245.376 247.224 241.499C249.838 237.622 251.615 233.243 252.441 228.641C253.273 223.947 253.159 219.135 252.107 214.486C251.055 209.837 249.085 205.444 246.313 201.566C241.802 195.058 235.402 190.093 227.977 187.34C220.552 184.588 212.462 184.182 204.798 186.176C201.293 187.117 197.958 188.58 194.899 190.527L176.308 202.364C175.388 202.954 174.382 203.397 173.325 203.675C171.828 204.062 170.269 204.148 168.739 203.927C167.209 203.707 165.738 203.184 164.412 202.389C163.085 201.594 161.931 200.543 161.014 199.298C160.098 198.052 159.439 196.637 159.075 195.135C158.749 193.731 158.717 192.276 158.98 190.86C159.23 189.477 159.765 188.161 160.55 186.995C161.335 185.829 162.353 184.838 163.54 184.086L212.265 153.04C213.185 152.45 214.192 152.007 215.248 151.729C217.559 151.133 219.996 151.259 222.233 152.09C224.469 152.92 226.398 154.415 227.76 156.375C229.251 158.484 229.945 161.049 229.726 163.614L229.555 165.419L231.37 165.97C238.216 168.036 244.658 171.259 250.417 175.498L252.916 177.322L253.828 174.52C254.322 173.031 254.711 171.518 254.996 169.979C255.83 165.285 255.718 160.473 254.667 155.824C253.617 151.175 251.649 146.782 248.878 142.904C244.368 136.392 237.966 131.424 230.54 128.669C223.113 125.915 215.019 125.508 207.354 127.504C203.85 128.435 200.51 129.903 197.455 131.855L148.729 162.892C144.769 165.381 141.372 168.669 138.755 172.546C136.138 176.423 134.358 180.803 133.529 185.407C132.698 190.1 132.811 194.913 133.863 199.562C134.916 204.211 136.885 208.603 139.657 212.482C144.169 218.991 150.571 223.958 157.998 226.71C165.424 229.463 173.517 229.868 181.181 227.872C184.687 226.931 188.021 225.468 191.08 223.53L209.662 211.674C210.6 211.085 211.597 210.651 212.655 210.373C214.152 209.989 215.71 209.906 217.238 210.129C218.767 210.351 220.237 210.875 221.562 211.669C222.887 212.463 224.042 213.513 224.959 214.756C225.876 215.999 226.538 217.412 226.905 218.913C227.228 220.31 227.256 221.763 227.009 223.179C226.757 224.563 226.219 225.88 225.431 227.046C224.643 228.212 223.621 229.201 222.43 229.952L173.724 261.008C172.804 261.594 171.797 262.034 170.741 262.309C168.432 262.906 165.995 262.781 163.758 261.952C161.522 261.124 159.593 259.63 158.229 257.673C156.74 255.568 156.044 253.003 156.263 250.434L156.424 248.629L154.619 248.078C147.773 246.011 141.331 242.789 135.572 238.55L133.073 236.726L132.161 239.528C131.679 241.016 131.289 242.533 130.993 244.069C130.16 248.762 130.272 253.574 131.322 258.223C132.373 262.872 134.341 267.265 137.111 271.144C141.621 277.653 148.021 282.621 155.446 285.375" fill="#FF5722"/>
</svg>
