<svg width="388" height="581" viewBox="0 0 388 581" fill="none" xmlns="http://www.w3.org/2000/svg">
<rect width="388" height="581" fill="#FBFBFB"/>
<rect y="417" width="388" height="164" fill="#8AC336"/>
<path d="M134.873 541.687C130.171 541.687 125.878 540.869 121.993 539.233C118.143 537.564 114.855 535.196 112.129 532.129C109.403 529.028 107.375 525.314 106.047 520.987L116.78 517.562C118.177 521.924 120.409 525.246 123.475 527.529C126.542 529.812 130.307 530.953 134.771 530.953C138.724 530.953 141.807 530.084 144.022 528.347C146.237 526.609 147.344 524.207 147.344 521.14V520.476C147.344 517.886 146.458 515.722 144.687 513.984C142.915 512.247 139.933 510.628 135.742 509.129L125.724 505.449C115.4 501.701 110.238 495.193 110.238 485.924V485.618C110.238 481.529 111.226 477.951 113.202 474.884C115.178 471.818 117.938 469.433 121.482 467.729C125.026 465.991 129.132 465.122 133.8 465.122C140.104 465.122 145.351 466.553 149.542 469.416C153.767 472.244 156.817 476.435 158.691 481.989L148.06 485.567C145.845 479.093 141.109 475.856 133.851 475.856C130.205 475.856 127.275 476.69 125.06 478.36C122.879 480.03 121.789 482.261 121.789 485.056V485.567C121.789 487.781 122.504 489.656 123.935 491.189C125.401 492.688 127.786 494.034 131.091 495.227L141.16 498.907C147.293 501.156 151.774 504.035 154.602 507.544C157.464 511.02 158.895 515.381 158.895 520.629V521.038C158.895 525.161 157.89 528.773 155.88 531.873C153.87 534.974 151.058 537.393 147.447 539.131C143.869 540.835 139.678 541.687 134.873 541.687ZM188.602 540L165.653 466.809H177.716L191.976 516.847L193.969 526.916H194.276L196.371 516.847L210.478 466.809H222.387L199.438 540H188.602ZM257.716 541.687C251.684 541.687 246.488 540.204 242.127 537.24C237.799 534.241 234.46 529.982 232.109 524.462C229.792 518.942 228.633 512.315 228.633 504.58V502.791C228.633 494.954 229.792 488.224 232.109 482.602C234.426 476.98 237.748 472.67 242.076 469.671C246.437 466.639 251.633 465.122 257.664 465.122C263.525 465.122 268.466 466.57 272.487 469.467C276.542 472.329 279.523 476.503 281.431 481.989L271.004 486.129C269.812 482.721 268.125 480.2 265.944 478.564C263.798 476.895 261.089 476.06 257.818 476.06C252.196 476.06 247.868 478.343 244.836 482.909C241.837 487.475 240.338 494.017 240.338 502.536V504.836C240.338 513.218 241.837 519.658 244.836 524.156C247.834 528.619 252.144 530.851 257.767 530.851C262.469 530.851 266.047 529.25 268.5 526.047C270.987 522.844 272.231 518.227 272.231 512.196V509.64H256.233V499.571H283.22V510.56C283.22 520.407 280.988 528.057 276.524 533.509C272.061 538.961 265.791 541.687 257.716 541.687Z" fill="white"/>
<path d="M225.75 169.667H225.856M98.75 148.5C98.75 140.079 102.095 132.004 108.049 126.049C114.004 120.095 122.079 116.75 130.5 116.75H257.5C265.921 116.75 273.996 120.095 279.951 126.049C285.905 132.004 289.25 140.079 289.25 148.5V275.5C289.25 283.921 285.905 291.996 279.951 297.951C273.996 303.905 265.921 307.25 257.5 307.25H130.5C122.079 307.25 114.004 303.905 108.049 297.951C102.095 291.996 98.75 283.921 98.75 275.5V148.5Z" stroke="#8AC336" stroke-width="20" stroke-linecap="round" stroke-linejoin="round"/>
<path d="M98.75 254.333L151.667 201.417C161.488 191.966 173.595 191.966 183.417 201.417L236.333 254.333" stroke="#8AC336" stroke-width="20" stroke-linecap="round" stroke-linejoin="round"/>
<path d="M215.166 233.167L225.749 222.583C235.571 213.132 247.678 213.132 257.499 222.583L289.249 254.333" stroke="#8AC336" stroke-width="20" stroke-linecap="round" stroke-linejoin="round"/>
</svg>
