<svg width="388" height="581" viewBox="0 0 388 581" fill="none" xmlns="http://www.w3.org/2000/svg">
<rect width="388" height="581" fill="#FBFBFB"/>
<rect y="417" width="388" height="164" fill="#242023"/>
<path d="M109.471 540V466.809H132.42C137.361 466.809 141.637 467.712 145.249 469.518C148.861 471.324 151.655 473.879 153.631 477.184C155.607 480.49 156.595 484.408 156.595 488.94V489.86C156.595 494.358 155.607 498.276 153.631 501.616C151.655 504.921 148.861 507.476 145.249 509.282C141.637 511.088 137.361 511.991 132.42 511.991H116.013V501.871H132.164C136.151 501.871 139.269 500.866 141.518 498.856C143.767 496.811 144.891 493.983 144.891 490.371V488.94C144.891 485.328 143.767 482.5 141.518 480.456C139.269 478.411 136.151 477.389 132.164 477.389H120.92V540H109.471ZM147.855 540L128.484 507.442H141.16L160.991 540H147.855ZM165.602 540L188.347 466.809H199.847L222.489 540H210.427L196.269 488.684L194.071 479.842H193.764L191.618 488.684L177.511 540H165.602ZM175.773 522.724L178.84 512.911H208.893L212.062 522.724H175.773ZM235.789 540L226.078 466.809H237.118L242.536 521.907H242.842L245.449 507.238L251.429 481.222H259.198L265.178 507.238L267.784 521.907H268.091L273.304 466.809H284.549L274.889 540H265.024L257.46 507.953L255.467 496.811H255.16L253.167 507.953L245.653 540H235.789Z" fill="white"/>
<path d="M225.75 169.667H225.856M98.75 148.5C98.75 140.079 102.095 132.004 108.049 126.049C114.004 120.095 122.079 116.75 130.5 116.75H257.5C265.921 116.75 273.996 120.095 279.951 126.049C285.905 132.004 289.25 140.079 289.25 148.5V275.5C289.25 283.921 285.905 291.996 279.951 297.951C273.996 303.905 265.921 307.25 257.5 307.25H130.5C122.079 307.25 114.004 303.905 108.049 297.951C102.095 291.996 98.75 283.921 98.75 275.5V148.5Z" stroke="#242023" stroke-width="20" stroke-linecap="round" stroke-linejoin="round"/>
<path d="M98.75 254.333L151.667 201.417C161.488 191.966 173.595 191.966 183.417 201.417L236.333 254.333" stroke="#242023" stroke-width="20" stroke-linecap="round" stroke-linejoin="round"/>
<path d="M215.166 233.167L225.749 222.583C235.571 213.132 247.678 213.132 257.499 222.583L289.249 254.333" stroke="#242023" stroke-width="20" stroke-linecap="round" stroke-linejoin="round"/>
</svg>
