<svg width="388" height="581" viewBox="0 0 388 581" fill="none" xmlns="http://www.w3.org/2000/svg">
<rect width="388" height="581" fill="#FBFBFB"/>
<rect width="388" height="581" fill="#FBFBFB"/>
<rect y="417" width="388" height="164" fill="#007ACC"/>
<path d="M158.047 540V472.124H169.7V540H158.047ZM138.215 477.747V466.809H189.531V477.747H138.215ZM227.313 541.687C222.611 541.687 218.318 540.869 214.433 539.233C210.583 537.564 207.295 535.196 204.569 532.129C201.843 529.028 199.816 525.314 198.487 520.987L209.22 517.562C210.617 521.924 212.849 525.246 215.916 527.529C218.982 529.812 222.747 530.953 227.211 530.953C231.164 530.953 234.247 530.084 236.462 528.347C238.677 526.609 239.784 524.207 239.784 521.14V520.476C239.784 517.886 238.899 515.722 237.127 513.984C235.355 512.247 232.373 510.628 228.182 509.129L218.164 505.449C207.84 501.701 202.678 495.193 202.678 485.924V485.618C202.678 481.529 203.666 477.951 205.642 474.884C207.619 471.818 210.379 469.433 213.922 467.729C217.466 465.991 221.572 465.122 226.24 465.122C232.544 465.122 237.791 466.553 241.982 469.416C246.207 472.244 249.257 476.435 251.131 481.989L240.5 485.567C238.285 479.093 233.549 475.856 226.291 475.856C222.645 475.856 219.715 476.69 217.5 478.36C215.319 480.03 214.229 482.261 214.229 485.056V485.567C214.229 487.781 214.944 489.656 216.376 491.189C217.841 492.688 220.226 494.034 223.531 495.227L233.6 498.907C239.733 501.156 244.214 504.035 247.042 507.544C249.904 511.02 251.336 515.381 251.336 520.629V521.038C251.336 525.161 250.33 528.773 248.32 531.873C246.31 534.974 243.499 537.393 239.887 539.131C236.309 540.835 232.118 541.687 227.313 541.687Z" fill="white"/>
<path d="M242.898 157.549C248.328 158.803 253.262 161.646 257.069 165.716C259.163 167.92 260.986 170.366 262.501 173.002C262.571 173.289 252.722 179.906 246.748 183.597C246.532 183.744 245.671 182.807 244.696 181.366C243.606 179.489 242.058 177.919 240.196 176.804C238.333 175.689 236.219 175.065 234.049 174.991C227.183 174.519 222.759 178.115 222.791 184.127C222.732 185.603 223.068 187.069 223.766 188.372C225.277 191.496 228.082 193.37 236.893 197.189C253.111 204.17 260.072 208.772 264.369 215.313C266.797 219.446 268.292 224.06 268.75 228.831C269.208 233.603 268.618 238.416 267.021 242.936C264.827 247.894 261.344 252.173 256.936 255.329C252.528 258.485 247.355 260.402 241.954 260.882C236.214 261.533 230.416 261.473 224.691 260.703C215.922 259.263 207.844 255.054 201.639 248.693C199.295 246.051 197.311 243.113 195.736 239.952C196.401 239.466 197.097 239.023 197.82 238.626C198.827 238.053 202.64 235.86 206.235 233.775L212.763 229.95L214.127 231.939C216.429 235.222 219.353 238.02 222.734 240.176C226.151 242.05 230.022 242.938 233.914 242.741C237.807 242.544 241.568 241.27 244.778 239.06C246.434 237.446 247.47 235.3 247.703 232.999C247.936 230.699 247.352 228.389 246.053 226.476C244.294 223.958 240.698 221.841 230.479 217.41C222.466 214.708 215.168 210.23 209.129 204.31C206.256 201.031 204.133 197.165 202.907 192.981C202.001 188.214 201.868 183.332 202.512 178.523C203.71 172.988 206.582 167.955 210.737 164.107C214.893 160.259 220.132 157.783 225.743 157.014C231.456 156.331 237.239 156.511 242.898 157.549ZM189.711 167.003L189.781 176.273H160.265V260.091H139.451V176.292H109.934V167.188C109.856 164.071 109.941 160.951 110.189 157.842C110.298 157.696 128.243 157.626 150.001 157.664L189.596 157.772L189.711 167.003Z" fill="#007ACC"/>
</svg>
