<svg width="388" height="581" viewBox="0 0 388 581" fill="none" xmlns="http://www.w3.org/2000/svg">
<rect width="388" height="581" fill="#FBFBFB"/>
<rect width="388" height="581" fill="#FBFBFB"/>
<rect y="417" width="388" height="164" fill="#00D2D9"/>
<path d="M158.047 540V472.124H169.7V540H158.047ZM138.215 477.747V466.809H189.531V477.747H138.215ZM205.642 540L195.931 466.809H206.971L212.389 521.907H212.696L215.302 507.238L221.282 481.222H229.051L235.031 507.238L237.638 521.907H237.944L243.158 466.809H254.402L244.742 540H234.878L227.313 507.953L225.32 496.811H225.013L223.02 507.953L215.507 540H205.642Z" fill="white"/>
<g clip-path="url(#clip0_1699_827)">
<path d="M194.008 133.804C161.474 133.804 141.147 150.064 133.008 182.598C145.204 166.336 159.442 160.238 175.704 164.304C184.989 166.618 191.625 173.351 198.974 180.812C210.933 192.949 224.777 207 255.008 207C287.54 207 307.868 190.738 316.008 158.196C303.808 174.467 289.575 180.568 273.31 176.5C264.026 174.184 257.398 167.453 250.04 159.992C238.088 147.855 224.249 133.804 194.008 133.804ZM133.008 207C100.476 207 80.1475 223.262 72.0078 255.804C84.2065 239.533 98.4386 233.432 114.704 237.5C123.989 239.816 130.625 246.547 137.974 254.008C149.933 266.145 163.777 280.196 194.008 280.196C226.54 280.196 246.868 263.936 255.008 231.402C242.808 247.665 228.575 253.763 212.31 249.696C203.026 247.382 196.398 240.649 189.04 233.188C177.088 221.051 163.249 207 133.008 207Z" fill="#00D2D9"/>
</g>
<defs>
<clipPath id="clip0_1699_827">
<rect width="244" height="244" fill="white" transform="translate(72 85)"/>
</clipPath>
</defs>
</svg>
