<svg width="388" height="581" viewBox="0 0 388 581" fill="none" xmlns="http://www.w3.org/2000/svg">
<rect width="388" height="581" fill="#FBFBFB"/>
<rect y="417" width="388" height="164" fill="#242023"/>
<path d="M126.9 540V472.124H138.553V540H126.9ZM107.069 477.747V466.809H158.384V477.747H107.069ZM209.813 540L189.931 505.551L188.5 504.887L166.267 466.809H179.198L197.956 499.06L199.387 499.776L222.744 540H209.813ZM165.296 540L188.96 499.98L190.238 499.009L209.149 466.809H221.773L199.233 504.836L197.956 505.756L177.92 540H165.296ZM249.487 540V472.124H261.14V540H249.487ZM229.656 477.747V466.809H280.971V477.747H229.656Z" fill="white"/>
<g clip-path="url(#clip0_1694_286)">
<path d="M90.875 137C90.875 134.514 91.8627 132.129 93.6209 130.371C95.379 128.613 97.7636 127.625 100.25 127.625H287.75C290.236 127.625 292.621 128.613 294.379 130.371C296.137 132.129 297.125 134.514 297.125 137C297.125 139.486 296.137 141.871 294.379 143.629C292.621 145.387 290.236 146.375 287.75 146.375H100.25C97.7636 146.375 95.379 145.387 93.6209 143.629C91.8627 141.871 90.875 139.486 90.875 137ZM90.875 187C90.875 184.514 91.8627 182.129 93.6209 180.371C95.379 178.613 97.7636 177.625 100.25 177.625H225.25C227.736 177.625 230.121 178.613 231.879 180.371C233.637 182.129 234.625 184.514 234.625 187C234.625 189.486 233.637 191.871 231.879 193.629C230.121 195.387 227.736 196.375 225.25 196.375H100.25C97.7636 196.375 95.379 195.387 93.6209 193.629C91.8627 191.871 90.875 189.486 90.875 187ZM90.875 237C90.875 234.514 91.8627 232.129 93.6209 230.371C95.379 228.613 97.7636 227.625 100.25 227.625H287.75C290.236 227.625 292.621 228.613 294.379 230.371C296.137 232.129 297.125 234.514 297.125 237C297.125 239.486 296.137 241.871 294.379 243.629C292.621 245.387 290.236 246.375 287.75 246.375H100.25C97.7636 246.375 95.379 245.387 93.6209 243.629C91.8627 241.871 90.875 239.486 90.875 237ZM90.875 287C90.875 284.514 91.8627 282.129 93.6209 280.371C95.379 278.613 97.7636 277.625 100.25 277.625H225.25C227.736 277.625 230.121 278.613 231.879 280.371C233.637 282.129 234.625 284.514 234.625 287C234.625 289.486 233.637 291.871 231.879 293.629C230.121 295.387 227.736 296.375 225.25 296.375H100.25C97.7636 296.375 95.379 295.387 93.6209 293.629C91.8627 291.871 90.875 289.486 90.875 287Z" fill="#242023"/>
</g>
<defs>
<clipPath id="clip0_1694_286">
<rect width="254" height="254" fill="white" transform="translate(67 85)"/>
</clipPath>
</defs>
</svg>
