<svg width="388" height="581" viewBox="0 0 388 581" fill="none" xmlns="http://www.w3.org/2000/svg">
<rect width="388" height="581" fill="#FBFBFB"/>
<rect width="388" height="581" fill="#FBFBFB"/>
<path d="M239.75 168.875L293.125 153.625L194 321.375L94.875 153.625L148.25 168.875" stroke="#8800FF" stroke-width="15" stroke-linecap="round" stroke-linejoin="round"/>
<path d="M163.5 107.875L155.875 184.125L186.375 168.875L171.125 214.625L194 207V252.75L255 138.375L224.5 146L247.375 92.625L163.5 107.875Z" stroke="#FFC300" stroke-width="15" stroke-linecap="round" stroke-linejoin="round"/>
<rect y="417" width="388" height="164" fill="#8800FF"/>
<path d="M96.6621 540L73.7132 466.809H85.7754L100.035 516.847L102.029 526.916H102.335L104.431 516.847L118.538 466.809H130.447L107.498 540H96.6621ZM157.547 534.531V472.278H169.2V534.531H157.547ZM141.191 540V529.062H185.555V540H141.191ZM141.191 477.696V466.809H185.555V477.696H141.191ZM218.84 540V472.124H230.493V540H218.84ZM199.009 477.747V466.809H250.324V477.747H199.009ZM264.033 540V466.809H306.762V477.593H275.585V529.216H307.58V540H264.033ZM270.933 507.902V497.169H302.673V507.902H270.933Z" fill="white"/>
</svg>
