<svg width="388" height="581" viewBox="0 0 388 581" fill="none" xmlns="http://www.w3.org/2000/svg">
<rect width="388" height="581" fill="#FBFBFB"/>
<rect width="388" height="581" fill="#FBFBFB"/>
<rect y="417" width="388" height="164" fill="#1DCA79"/>
<path d="M127.309 540L104.36 466.809H116.422L130.682 516.847L132.675 526.916H132.982L135.078 516.847L149.184 466.809H161.093L138.144 540H127.309ZM194.02 541.687C189.216 541.687 185.007 540.647 181.396 538.569C177.784 536.456 174.973 533.543 172.962 529.829C170.952 526.081 169.947 521.753 169.947 516.847V466.809H181.498V516.336C181.498 520.765 182.605 524.275 184.82 526.864C187.069 529.454 190.136 530.749 194.02 530.749C197.938 530.749 201.005 529.454 203.22 526.864C205.435 524.275 206.542 520.765 206.542 516.336V466.809H218.093V516.847C218.093 521.753 217.088 526.081 215.078 529.829C213.067 533.543 210.256 536.456 206.644 538.569C203.067 540.647 198.858 541.687 194.02 541.687ZM233.387 540V466.809H276.116V477.593H244.938V529.216H276.933V540H233.387ZM240.287 507.902V497.169H272.027V507.902H240.287Z" fill="white"/>
<path d="M137.736 112.763L177.842 112.785L193.066 134.301L208.18 112.785L248.253 112.774L193.253 205.24L137.736 112.763Z" fill="#1DCA79"/>
<path d="M221.6 101.73C219.833 101.728 218.092 102.153 216.524 102.966C214.956 103.78 213.607 104.96 212.591 106.405L193 134.29L173.299 106.383C172.283 104.945 170.936 103.771 169.372 102.962C167.808 102.152 166.073 101.73 164.312 101.73H131.18L170.23 166.85L193.33 205.35L216.1 166.85L254.82 101.73H221.6Z" fill="#1DCA79"/>
<path opacity="0.5" d="M303.01 101.818L254.786 101.785L216.099 166.85L193.329 205.35L170.229 166.85L131.223 101.807L82.9334 102.071C81.0012 102.082 79.1058 102.601 77.4382 103.577C75.7705 104.553 74.3894 105.951 73.4337 107.63C72.4781 109.31 71.9816 111.211 71.9944 113.143C72.0071 115.076 72.5286 116.97 73.5064 118.637L183.726 306.792C184.697 308.45 186.086 309.825 187.753 310.78C189.421 311.734 191.31 312.235 193.231 312.233C195.153 312.231 197.04 311.725 198.706 310.767C200.371 309.808 201.756 308.43 202.723 306.77L312.503 118.362C313.478 116.691 313.995 114.793 314.003 112.858C314.01 110.924 313.506 109.021 312.544 107.343C311.581 105.665 310.192 104.271 308.519 103.301C306.845 102.331 304.945 101.819 303.01 101.818Z" fill="#1DCA79"/>
</svg>
