<svg width="388" height="581" viewBox="0 0 388 581" fill="none" xmlns="http://www.w3.org/2000/svg">
<rect width="388" height="581" fill="#FBFBFB"/>
<rect y="417" width="388" height="164" fill="#00BFFF"/>
<path d="M113.202 540L103.491 466.809H114.531L119.949 521.907H120.255L122.862 507.238L128.842 481.222H136.611L142.591 507.238L145.198 521.907H145.504L150.718 466.809H161.962L152.302 540H142.438L134.873 507.953L132.88 496.811H132.573L130.58 507.953L123.067 540H113.202ZM165.602 540L188.347 466.809H199.847L222.489 540H210.427L196.269 488.684L194.071 479.842H193.764L191.618 488.684L177.511 540H165.602ZM175.773 522.724L178.84 512.911H208.893L212.062 522.724H175.773ZM249.896 540L226.947 466.809H239.009L253.269 516.847L255.262 526.916H255.569L257.664 516.847L271.771 466.809H283.68L260.731 540H249.896Z" fill="white"/>
<path d="M109 195V220.5M143 161V254.5M177 135.5V288.5M211 178V237.5M245 152.5V263M279 195V220.5" stroke="#00BFFF" stroke-width="21" stroke-linecap="round" stroke-linejoin="round"/>
</svg>
