<svg width="388" height="581" viewBox="0 0 388 581" fill="none" xmlns="http://www.w3.org/2000/svg">
<rect width="388" height="581" fill="#FBFBFB"/>
<rect y="417" width="388" height="164" fill="#3649C3"/>
<path d="M82.5554 540L72.8443 466.809H83.8843L89.3021 521.907H89.6087L92.2154 507.238L98.1954 481.222H105.964L111.944 507.238L114.551 521.907H114.858L120.071 466.809H131.315L121.655 540H111.791L104.227 507.953L102.233 496.811H101.927L99.9332 507.953L92.4199 540H82.5554ZM141.447 540V466.809H184.175V477.593H152.998V529.216H184.993V540H141.447ZM148.347 507.902V497.169H180.087V507.902H148.347ZM202.076 540V466.809H226.2C232.606 466.809 237.649 468.41 241.329 471.613C245.009 474.816 246.849 479.093 246.849 484.442V485.72C246.849 489.536 245.929 492.807 244.089 495.533C242.249 498.259 239.608 500.27 236.167 501.564V501.973C240.426 502.927 243.748 504.955 246.133 508.056C248.553 511.122 249.762 514.887 249.762 519.351V520.731C249.762 524.616 248.842 528.006 247.002 530.902C245.196 533.799 242.641 536.047 239.336 537.649C236.064 539.216 232.197 540 227.733 540H202.076ZM213.422 530.187H226.404C230.153 530.187 233.049 529.233 235.093 527.324C237.138 525.416 238.16 522.69 238.16 519.147V518.022C238.16 514.479 237.104 511.753 234.991 509.844C232.913 507.902 229.897 506.931 225.944 506.931H210.253V497.527H224.564C228.006 497.527 230.647 496.658 232.487 494.92C234.327 493.182 235.247 490.712 235.247 487.509V486.589C235.247 483.352 234.327 480.881 232.487 479.178C230.681 477.474 228.04 476.622 224.564 476.622H213.422V530.187ZM262.909 540V466.809H286.216C291.088 466.809 295.313 467.763 298.891 469.671C302.469 471.579 305.229 474.271 307.171 477.747C309.147 481.222 310.136 485.294 310.136 489.962V491.291C310.136 495.993 309.147 500.082 307.171 503.558C305.229 506.999 302.469 509.691 298.891 511.633C295.313 513.541 291.088 514.496 286.216 514.496H269.502V503.864H285.96C289.913 503.864 292.979 502.774 295.16 500.593C297.375 498.413 298.482 495.397 298.482 491.547V489.707C298.482 485.822 297.375 482.807 295.16 480.66C292.979 478.479 289.913 477.389 285.96 477.389H274.409V540H262.909Z" fill="white"/>
<path d="M225.75 169.667H225.856M98.75 148.5C98.75 140.079 102.095 132.004 108.049 126.049C114.004 120.095 122.079 116.75 130.5 116.75H257.5C265.921 116.75 273.996 120.095 279.951 126.049C285.905 132.004 289.25 140.079 289.25 148.5V275.5C289.25 283.921 285.905 291.996 279.951 297.951C273.996 303.905 265.921 307.25 257.5 307.25H130.5C122.079 307.25 114.004 303.905 108.049 297.951C102.095 291.996 98.75 283.921 98.75 275.5V148.5Z" stroke="#3649C3" stroke-width="20" stroke-linecap="round" stroke-linejoin="round"/>
<path d="M98.75 254.333L151.667 201.417C161.488 191.966 173.595 191.966 183.417 201.417L236.333 254.333" stroke="#3649C3" stroke-width="20" stroke-linecap="round" stroke-linejoin="round"/>
<path d="M215.166 233.167L225.749 222.583C235.571 213.132 247.678 213.132 257.499 222.583L289.249 254.333" stroke="#3649C3" stroke-width="20" stroke-linecap="round" stroke-linejoin="round"/>
</svg>
