<svg width="388" height="581" viewBox="0 0 388 581" fill="none" xmlns="http://www.w3.org/2000/svg">
<rect width="388" height="581" fill="#FBFBFB"/>
<rect width="388" height="581" fill="#FBFBFB"/>
<rect y="417" width="388" height="164" fill="#8AC336"/>
<path d="M148.52 540L128.638 505.551L127.207 504.887L104.973 466.809H117.904L136.662 499.06L138.093 499.776L161.451 540H148.52ZM104.002 540L127.667 499.98L128.944 499.009L147.855 466.809H160.48L137.94 504.836L136.662 505.756L116.627 540H104.002ZM167.238 540V466.809H178.533L189.471 492.569L193.816 504.938H194.224L198.569 492.569L209.507 466.809H220.802V540H209.967V505.96L211.142 485.516H210.733L198.007 517H190.033L177.307 485.516H176.898L178.073 505.96V540H167.238ZM234.153 540V466.809H245.756V529.062H279.847V540H234.153Z" fill="white"/>
<path d="M220.083 254.917L268 207L220.083 159.083L234.666 144.5L297.166 207L234.666 269.5L220.083 254.917ZM165.916 254.917L118 207L165.916 159.083L151.333 144.5L88.833 207L151.333 269.5L165.916 254.917Z" fill="#8AC336"/>
</svg>
