<svg width="388" height="581" viewBox="0 0 388 581" fill="none" xmlns="http://www.w3.org/2000/svg">
<rect width="388" height="581" fill="#FBFBFB"/>
<rect width="388" height="581" fill="#FBFBFB"/>
<rect y="417" width="388" height="164" fill="#8800FF"/>
<path d="M97.1732 514.7L74.071 466.809H86.7976L97.071 488.838L102.08 501.258H102.489L107.344 488.838L117.669 466.809H130.089L107.038 514.7H97.1732ZM96.3043 540V507.136H107.855V540H96.3043ZM134.955 540L157.7 466.809H169.2L191.842 540H179.78L165.622 488.684L163.424 479.842H163.118L160.971 488.684L146.864 540H134.955ZM145.127 522.724L148.193 512.911H178.247L181.415 522.724H145.127ZM197.884 540V466.809H209.18L220.118 492.569L224.462 504.938H224.871L229.216 492.569L240.153 466.809H251.449V540H240.613V505.96L241.789 485.516H241.38L228.653 517H220.68L207.953 485.516H207.544L208.72 505.96V540H197.884ZM264.8 540V466.809H276.402V529.062H310.493V540H264.8Z" fill="white"/>
<path d="M220.083 254.917L268 207L220.083 159.083L234.666 144.5L297.166 207L234.666 269.5L220.083 254.917ZM165.916 254.917L118 207L165.916 159.083L151.333 144.5L88.833 207L151.333 269.5L165.916 254.917Z" fill="#8800FF"/>
</svg>
