<svg width="388" height="581" viewBox="0 0 388 581" fill="none" xmlns="http://www.w3.org/2000/svg">
<rect width="388" height="581" fill="#FBFBFB"/>
<rect y="417" width="388" height="164" fill="#FCC200"/>
<path d="M108.755 540V530.136L142.387 477.644H110.033V466.809H155.931V476.673L122.3 529.164H156.698V540H108.755ZM188.193 534.531V472.278H199.847V534.531H188.193ZM171.838 540V529.062H216.202V540H171.838ZM171.838 477.696V466.809H216.202V477.696H171.838ZM232.262 540V466.809H255.569C260.442 466.809 264.667 467.763 268.244 469.671C271.822 471.579 274.582 474.271 276.524 477.747C278.501 481.222 279.489 485.294 279.489 489.962V491.291C279.489 495.993 278.501 500.082 276.524 503.558C274.582 506.999 271.822 509.691 268.244 511.633C264.667 513.541 260.442 514.496 255.569 514.496H238.856V503.864H255.313C259.266 503.864 262.333 502.774 264.513 500.593C266.728 498.413 267.836 495.397 267.836 491.547V489.707C267.836 485.822 266.728 482.807 264.513 480.66C262.333 478.479 259.266 477.389 255.313 477.389H243.762V540H232.262Z" fill="white"/>
<path d="M128.5 307.357C125.176 305.438 122.417 302.677 120.5 299.352C118.584 296.026 117.577 292.255 117.583 288.417V135.583C117.583 129.793 119.883 124.239 123.978 120.145C128.072 116.05 133.626 113.75 139.416 113.75H215.833L270.416 168.333V288.417C270.416 294.207 268.116 299.761 264.022 303.855C259.927 307.95 254.374 310.25 248.583 310.25H237.666" stroke="#FCC200" stroke-width="21" stroke-linecap="round" stroke-linejoin="round"/>
<path d="M183.083 135.583H172.167M204.917 157.417H194M183.083 179.25H172.167M204.917 201.083H194M183.083 222.917H172.167M204.917 244.75H194M183.083 266.583C188.874 266.583 194.427 268.884 198.522 272.978C202.616 277.073 204.917 282.626 204.917 288.417V310.25C204.917 313.145 203.767 315.922 201.719 317.969C199.672 320.016 196.895 321.167 194 321.167H172.167C169.271 321.167 166.495 320.016 164.447 317.969C162.4 315.922 161.25 313.145 161.25 310.25V288.417C161.25 282.626 163.55 277.073 167.645 272.978C171.739 268.884 177.293 266.583 183.083 266.583Z" stroke="#FCC200" stroke-width="21" stroke-linecap="round" stroke-linejoin="round"/>
</svg>
